<?xml version="1.0" standalone="no"?>
<!DOCTYPE svg PUBLIC "-//W3C//DTD SVG 1.1//EN" "http://www.w3.org/Graphics/SVG/1.1/DTD/svg11.dtd" >
<svg>
<metadata>
Created by FontForge 20090914 at Fri Feb 24 14:52:00 2012
 By root
Typeface &#194;&#169; &#60;your company&#62;. 2004. All Rights Reserved
</metadata>
<defs>
<font id="nihat" horiz-adv-x="1139" >
  <font-face 
    font-family="nihat"
    font-weight="400"
    font-stretch="normal"
    units-per-em="2048"
    panose-1="2 0 0 0 0 0 0 0 0 0"
    ascent="1638"
    descent="-410"
    x-height="1071"
    cap-height="1766"
    bbox="0 -370 2124 1855"
    underline-thickness="150"
    underline-position="-142"
    unicode-range="U+0020-U+F005"
  />
<missing-glyph horiz-adv-x="1536" 
d="M256 0v1280h1024v-1280h-1024zM288 32h960v1216h-960v-1216z" />
    <glyph glyph-name=".notdef" horiz-adv-x="1536" 
d="M256 0v1280h1024v-1280h-1024zM288 32h960v1216h-960v-1216z" />
    <glyph glyph-name=".null" horiz-adv-x="0" 
 />
    <glyph glyph-name="nonmarkingreturn" horiz-adv-x="569" 
 />
    <glyph glyph-name="space" unicode=" " horiz-adv-x="1050" 
 />
    <glyph glyph-name="space" unicode="&#xa0;" horiz-adv-x="1050" 
 />
    <glyph glyph-name="exclam" unicode="!" horiz-adv-x="792" 
d="M244 1850h51l51 -31v-93l-17 -166l35 -73l-18 -31q0 -342 206 -922l-17 -31q-239 0 -274 477q-12 165 -35 165l18 11l-69 632q35 62 69 62zM548 234q103 0 154 -125q0 -45 -189 -124q-79 0 -154 124q52 125 189 125z" />
    <glyph glyph-name="quotedbl" unicode="&#x22;" horiz-adv-x="1232" 
d="M485 1542q19 -76 19 -249q0 -186 -21.5 -330.5t-99.5 -164.5q-46 11 -66 42t-29 94q0 40 15.5 169t15.5 216q0 61 -10 158q0 63 25 95.5t62 32.5q75 0 89 -63zM897 1551q22 -105 22 -315q0 -146 -12.5 -265t-33.5 -141q-17 -24 -64 -37q-52 14 -67.5 49t-26.5 123
q0 43 8.5 156t8.5 185q0 76 -11 187q0 121 88 121q73 0 88 -63z" />
    <glyph glyph-name="numbersign" unicode="#" horiz-adv-x="1604" 
d="M1207 1748h46l33 -34v-22l-22 -91l11 -34l-101 -350q16 -45 33 -45h57q197 0 282 -67q-7 -46 -90 -46h-102l-11 -11l-11 11h-113q-124 0 -124 -124v-11q282 -51 282 -90l-102 -12l-11 12h-11q-215 -15 -215 -91l-56 -191l11 -46l-34 -214l11 -113v-68l-45 -11l-56 102
l11 56l-11 11v12l11 45v11l-11 11l68 373q-12 45 -57 45q-271 -44 -271 -147q-45 -153 -79 -496h-45l-23 101l12 11v57l56 406l-11 12h-169l-57 56v11q0 102 79 102h11l125 -23h56q20 0 56 124l-11 34h-56l-57 -11l-56 11l-192 -11q-158 0 -158 68q8 51 113 90
q64 -34 293 -34h34l11 11l12 -11h22q96 0 124 226l46 192l-12 101q65 57 113 57q23 0 34 -124q-113 -291 -113 -418h11l34 -11l46 11l101 -11h68q75 0 124 496h-11q28 88 67 102zM699 890v-22l91 -12q214 24 214 113l12 68h-12l-101 11l-12 -11h-11l-56 11q-125 0 -125 -158
zM1433 856h11v-22h-33z" />
    <glyph glyph-name="dollar" unicode="$" horiz-adv-x="1402" 
d="M654 1818h18q47 0 65 -56l-18 -121l9 -9v-10q-18 -42 -18 -121v-93l-10 -9l10 -28q231 46 335 46q46 -12 46 -28q0 -55 -56 -74l-93 19q-242 -20 -242 -112l-18 -214q0 -75 149 -75q177 -19 177 -56l46 9q197 -82 205 -121q0 -126 -373 -242q-176 0 -176 -56l-10 -65
l28 -261l-84 168l10 9v9q0 187 -75 187l-354 18v-9q-60 24 -65 47q0 55 93 93q213 -65 298 -65h28q28 0 37 74l-9 75l9 65q0 65 -83 65l-56 9l-38 -9q-279 21 -279 65v10q0 54 168 158q82 89 288 205v261l-9 205zM300 998v-18l121 -19v9l93 -18l46 9l38 -9l18 28v28l-9 83
l9 94v37q-168 -49 -316 -224zM672 803l10 -66l-10 -102q33 -28 93 -28q243 0 364 112q-103 139 -410 139q-28 -5 -47 -55zM719 122h9q21 0 28 -102q-26 0 -37 93v9z" />
    <glyph glyph-name="percent" unicode="%" horiz-adv-x="1480" 
d="M1140 1576l46 -47l-193 -300l-137 -215q-264 -434 -386 -722l11 -75q-59 -37 -125 -37l-11 9v38q227 385 227 431l398 646q53 68 91 244q41 28 79 28zM402 1492h22q160 -103 160 -197v-56q0 -53 -239 -122q-125 0 -125 159q19 206 136 206zM368 1304v-75h34q91 12 91 57
q-39 65 -57 65h-23zM1027 564q120 -33 170 -122v-18q0 -116 -193 -160h-46l-34 19h-45l-34 -19q-34 6 -34 75q56 225 216 225zM981 395l46 -28h11q45 19 45 57l-68 18q-26 0 -34 -47z" />
    <glyph glyph-name="ampersand" unicode="&#x26;" horiz-adv-x="1615" 
d="M782 1710q262 -58 262 -153q0 -277 -361 -656v-22l350 -306l99 -11q175 181 175 207q-7 88 -22 88q0 120 142 120l44 -54v-22q-76 -198 -263 -405v-11q0 -34 208 -98l11 -33q-27 -99 -54 -99h-33q-111 93 -252 153q-398 -273 -678 -273h-33q-164 52 -164 263
q96 415 208 415q76 61 76 99q-186 257 -186 503q175 295 471 295zM432 1349v-98q0 -118 164 -274q100 0 306 317l33 175q0 79 -175 110h-55q-273 -62 -273 -230zM344 408q0 -153 121 -153h65q186 0 460 208v33l-350 284l-44 33q-172 0 -252 -350v-55z" />
    <glyph glyph-name="quotesingle" unicode="'" horiz-adv-x="803" 
d="M441 1655q28 -73 28 -242q1 -35 1.5 -155.5t7 -197.5t26.5 -138q0 -42 -26.5 -66.5t-65.5 -27.5q-46 7 -54 37q-38 113 -47 341v161q0 170 -24 235q0 45 25 70t62 25q52 0 67 -42z" />
    <glyph glyph-name="parenleft" unicode="(" horiz-adv-x="813" 
d="M612 1770q38 -13 38 -74q0 -52 -144 -209q-39 -48 -86 -221q-70 -74 -115 -295q-36 -87 -78 -369q0 -318 231 -651l97 -48l47 11l58 -73v-12q0 -87 -86 -173q-157 0 -337 357q-115 271 -115 331v50q0 657 384 1266q29 57 106 110z" />
    <glyph glyph-name="parenright" unicode=")" horiz-adv-x="803" 
d="M406 1788q29 -1 114 -201q65 -85 105 -517l9 -38h10l-10 -76l10 -340q0 -255 -143 -541q0 -124 -180 -314q-49 -89 -114 -89q-60 26 -67 64v37q0 69 133 176q81 177 219 404l19 125v353q0 309 -143 705q-95 59 -95 138q0 85 133 114z" />
    <glyph glyph-name="asterisk" unicode="*" horiz-adv-x="1585" 
d="M1224 1709l30 -30v-15q0 -84 -135 -195q0 -156 -165 -285v-15q0 -49 435 -105l45 -45q0 -90 -315 -90h-75v-30l300 -375q-25 -68 -90 -105q-102 0 -405 450l-60 30q-231 -259 -465 -735l-60 -30h-45l-30 30q0 67 195 330q210 284 210 405q-118 0 -360 -75q-68 29 -75 60
q0 180 300 180l165 30q0 96 -270 315l-30 120q9 75 90 75h75l300 -330l285 360q98 75 150 75z" />
    <glyph glyph-name="plus" unicode="+" horiz-adv-x="1472" 
d="M694 1654h55l33 -22l-11 -110v-55l-22 -463l22 -22l232 11q297 0 297 -55q0 -47 -264 -88l-78 11l-22 -33l-66 11l-66 -11l-44 11l-22 -44q28 -486 88 -584l-11 -11h-33q-110 29 -110 352q-11 287 -55 287h-66l-88 11l-89 -11q-264 47 -264 110q25 99 99 99
q170 -77 331 -77q110 0 110 66q14 0 22 353l-11 33q11 174 33 231z" />
    <glyph glyph-name="comma" unicode="," horiz-adv-x="710" 
d="M204 243q73 -3 161 -140v-29q0 -28 -88 -125q-110 -231 -206 -257l-51 -22v15l176 242l30 66v15h-52q-47 0 -73 95v15q0 92 103 125z" />
    <glyph glyph-name="hyphen" unicode="-" horiz-adv-x="1533" 
d="M1170 1030h10l20 -20l10 10h10l50 -10l20 20l40 -60v-30l-90 -100l-70 10h-50l-250 -10v10q-117 -40 -380 -40h-10l-40 -20q-100 0 -130 50h-10l-80 -20h-10q-30 0 -40 130l50 30l10 -10l10 10v10l90 -20l440 30l70 -10l10 10l50 -10l110 10l40 -10q95 10 120 40z" />
    <glyph glyph-name="hyphen" unicode="&#xad;" horiz-adv-x="1533" 
d="M1170 1030h10l20 -20l10 10h10l50 -10l20 20l40 -60v-30l-90 -100l-70 10h-50l-250 -10v10q-117 -40 -380 -40h-10l-40 -20q-100 0 -130 50h-10l-80 -20h-10q-30 0 -40 130l50 30l10 -10l10 10v10l90 -20l440 30l70 -10l10 10l50 -10l110 10l40 -10q95 10 120 40z" />
    <glyph glyph-name="period" unicode="." horiz-adv-x="648" 
d="M203 295q78 0 92 -147q-42 -128 -119 -128q-156 20 -156 101q34 165 128 165z" />
    <glyph glyph-name="slash" unicode="/" horiz-adv-x="1163" 
d="M958 1697l44 -55q-52 -196 -231 -517l-88 -154l11 -11v-11q-319 -682 -330 -770q0 -39 -88 -99q-55 0 -66 44q55 87 385 880q242 426 242 594q37 99 121 99z" />
    <glyph glyph-name="zero" unicode="0" horiz-adv-x="1523" 
d="M665 1606q472 -121 472 -280q96 0 206 -339l30 -162q-38 -256 -148 -413q-315 -353 -648 -412q-298 0 -412 516l15 44l-30 88q0 251 148 678q32 12 146 207q99 68 221 73zM326 825v-29l15 -15l-15 -44q0 -402 236 -546h75q326 0 588 487l15 59q0 425 -339 603
q0 26 -206 75q-266 0 -266 -281q-59 0 -103 -309z" />
    <glyph glyph-name="one" unicode="1" 
d="M742 1631l48 -84l-12 -108h12q-60 -201 -72 -324l48 -635l-24 -288l24 -132l-48 -60q-72 0 -72 144h-12l12 60v12q0 386 -36 791h-12q-172 -292 -204 -311h-24v-12q-60 16 -60 84q312 516 312 659q0 204 120 204z" />
    <glyph glyph-name="two" unicode="2" horiz-adv-x="1441" 
d="M893 1593q256 -96 256 -364q0 -393 -499 -919v-27h41l121 -13l446 27q67 -10 67 -40v-41q-307 -135 -553 -135l-378 -27h-41q-34 -36 -189 -54q-54 14 -54 81v14q0 58 365 202q553 418 553 905q-51 189 -189 189h-14q-418 -130 -418 -446l-13 -14v-13h-41l-67 81
q0 246 229 392q61 121 378 202z" />
    <glyph glyph-name="three" unicode="3" horiz-adv-x="1616" 
d="M996 1596q182 -82 182 -238v-84l14 -14q-28 -168 -154 -406v-42q364 -84 364 -238q56 0 56 -112v-42q-282 -420 -896 -420h-70l-322 126v-14q-70 0 -70 140q43 112 112 112q92 0 196 -154l223 -56q512 0 659 252l28 70q-109 168 -266 168l-14 -14l-14 14h-14l-140 -14
l-42 56q0 43 140 238q84 194 84 378q-28 84 -56 84h-42q-171 0 -364 -336h-42q-21 0 -42 55q0 228 350 449z" />
    <glyph glyph-name="four" unicode="4" horiz-adv-x="1256" 
d="M299 1637h45q44 -22 44 -67q-11 -131 -44 -200l11 -56l-22 -100l11 -56v-156q36 -189 156 -189h33q167 0 167 89q3 56 22 56l-11 11v67l56 345l-11 134q9 38 67 66h33q33 -11 33 -66v-78q-100 -432 -100 -513v-33q11 -34 67 -34h11q72 45 134 45l22 -33v-34
q-31 0 -167 -89q-111 0 -111 -178q0 -318 44 -523q-17 -45 -33 -45h-11v11q0 66 -90 356v234l-11 56h-144q-290 0 -290 390v67l33 278v11l-11 156q23 60 67 78z" />
    <glyph glyph-name="five" unicode="5" horiz-adv-x="1626" 
d="M1450 1585l41 -28q0 -165 -192 -165q-772 -132 -772 -207v-138l41 -41h428q221 0 303 -316v-83q0 -379 -442 -552l-316 -55l-97 28l-82 -15q-262 31 -262 166v14q28 75 83 96h13q69 -3 69 -27l69 14h14q23 0 42 -97l164 -41q493 0 621 358h-15l15 14v124q0 124 -152 220
v14l-345 -27l-124 27l-96 -14q-110 85 -110 207q91 400 151 400h28l83 -41q659 165 840 165z" />
    <glyph glyph-name="six" unicode="6" horiz-adv-x="1420" 
d="M796 1624q76 0 118 -118q-17 -131 -53 -131q-67 66 -118 66h-91q-173 0 -289 -367l-52 -105v-26l13 -39l-13 -66v-91l-13 -145q72 -256 144 -314h26v39l-13 53q0 144 249 288l118 26h65q289 -67 289 -170l39 -39v-27q0 -303 -485 -458l-13 13h-13l-65 -13
q-313 0 -446 458l-13 262q97 537 170 537q0 164 341 341zM612 301v-39l92 -118h92q153 75 288 249v26q-75 131 -223 131h-105q-144 -63 -144 -249z" />
    <glyph glyph-name="seven" unicode="7" horiz-adv-x="1513" 
d="M1251 1620q100 -23 100 -50q-27 -139 -224 -324q0 -38 -112 -249l-13 -50l38 -25h87q212 -8 212 -75v-62q0 -37 -50 -37l-50 25l-13 -13h-12l-62 13q-274 0 -274 -175q-63 -146 -88 -424q50 -74 50 -112q-37 -37 -137 -62q-50 12 -50 75q35 342 125 585v13l-37 37
l-524 -124q-62 0 -62 112q0 45 399 137q0 26 299 62l224 449v37h-13l-174 13q0 -25 -374 -50h-37q-77 -25 -312 -38q-37 46 -37 88q33 80 62 87l150 -25q464 37 722 137l63 -12q72 0 124 37z" />
    <glyph glyph-name="eight" unicode="8" horiz-adv-x="1348" 
d="M677 1629q150 0 341 -145l118 -197v-26q0 -160 -145 -236q0 -49 -157 -132l-53 -52v-13q302 -172 302 -342l27 -144q-88 -342 -499 -342q-140 0 -236 145q-70 0 -119 288q0 222 132 368v14q-141 171 -158 289v13l13 157h-13q30 223 79 223l66 -13q201 145 302 145z
M388 1143q0 -197 236 -197q388 148 407 276q0 174 -302 275q-257 0 -341 -249v-105zM453 512q25 -328 132 -328q51 -26 144 -26h13q249 77 249 210v13q0 205 -289 315q-222 0 -222 -92z" />
    <glyph glyph-name="nine" unicode="9" horiz-adv-x="1544" 
d="M716 1583h75q154 0 327 -390q103 -18 176 -125l50 -301q0 -621 -541 -767h-38l-225 25l-38 -12q-34 25 -188 37l-139 51l-25 50q32 114 88 138h201v-13l-13 -88h13q70 -49 402 -49h38q91 0 227 162q74 127 112 378q-38 339 -112 339h-13q-247 -251 -415 -251l-101 12v-12
q-276 129 -276 251q0 192 176 364q146 201 239 201zM477 1081q0 -88 88 -88h50q239 91 352 175v13q0 184 -164 251l-62 12h-25q-110 0 -239 -238v-125z" />
    <glyph glyph-name="colon" unicode=":" horiz-adv-x="658" 
d="M314 1424q154 -23 154 -138v-14q0 -159 -118 -208h-36q-130 55 -130 125q0 105 130 235zM361 745q112 0 119 -193q-54 -180 -142 -180q0 -28 -71 -28v-14q-107 43 -107 138v84q0 193 201 193z" />
    <glyph glyph-name="semicolon" unicode=";" horiz-adv-x="648" 
d="M306 1440q148 -89 148 -166q-49 -157 -139 -157q-110 87 -110 166v18q23 139 101 139zM288 959q157 0 157 -249q-41 -453 -148 -453q0 -37 -28 -37h-64q-48 0 -65 46q0 111 139 111q64 49 64 240v10q-138 78 -138 101l-10 47q32 184 93 184z" />
    <glyph glyph-name="semicolon" unicode="&#x37e;" horiz-adv-x="648" 
d="M306 1440q148 -89 148 -166q-49 -157 -139 -157q-110 87 -110 166v18q23 139 101 139zM288 959q157 0 157 -249q-41 -453 -148 -453q0 -37 -28 -37h-64q-48 0 -65 46q0 111 139 111q64 49 64 240v10q-138 78 -138 101l-10 47q32 184 93 184z" />
    <glyph glyph-name="less" unicode="&#x3c;" horiz-adv-x="1196" 
d="M883 1630q132 -43 132 -66v-33q-42 -77 -275 -264l-308 -429v-33q375 -363 506 -363l11 -11q33 0 33 -110h11q0 -75 -154 -121q-173 219 -550 495h-88l-11 44q0 187 132 187q279 286 539 704h22z" />
    <glyph glyph-name="equal" unicode="=" horiz-adv-x="1441" 
d="M950 1314l11 -13h11l88 13l55 -13l110 13h22q55 0 66 -53q-18 -93 -66 -157l-341 26q-86 -26 -572 -53h-11l-11 -13l-33 13l-66 -13q-110 13 -110 118q2 39 99 93l132 -27l44 13l132 -13l88 27l121 -14l44 14l66 -14q0 40 121 40v13zM829 906l11 -13h55l165 13
q209 0 209 -144q0 -34 -132 -53l-88 13l-99 -13l-33 13l-704 -92h-11l-22 66q0 131 143 131q167 0 506 79z" />
    <glyph glyph-name="greater" unicode="&#x3e;" horiz-adv-x="1196" 
d="M223 1517q47 -8 385 -308q195 -134 418 -198l33 -11l11 -33q-164 -264 -275 -264q-217 -232 -363 -462l-99 -66q-77 0 -77 66l11 33l-11 55q222 171 440 462q88 77 88 121q-153 75 -506 374q-155 54 -165 99q0 118 110 132z" />
    <glyph glyph-name="question" unicode="?" 
d="M641 1730h153q205 -186 205 -411q-16 -183 -328 -567q-99 -70 -195 -231v-10l11 -44l-11 -42v-21q0 -19 31 -19l11 -12v-84q-86 -95 -144 -95v11q-50 25 -50 251q0 118 286 390q255 336 255 453v83q-55 222 -183 222h-30q-169 0 -339 -211l-30 -126l30 -84v-21l-21 -21
h-41q-61 22 -61 105v63q0 228 451 421zM385 -78q58 0 112 -63v-63q0 -53 -143 -96q-23 0 -82 85v21q0 101 113 116z" />
    <glyph glyph-name="at" unicode="@" horiz-adv-x="1379" 
d="M903 1667q207 -85 207 -256q61 -102 85 -268v-12q-30 -288 -146 -451q-106 -125 -183 -146q-244 47 -268 182v13q0 209 158 365l183 25h25l121 -12l12 36q-100 378 -207 378l-85 12q-273 -119 -390 -365l-85 -414l12 -38l-12 -36q0 -351 256 -426h85l378 147q0 23 158 48
v-25q-285 -304 -621 -304q-249 0 -354 304l-12 74l12 49l-12 72l12 49l-12 86q78 468 292 693q239 215 391 220zM744 826v-48h24q68 0 244 183v36h-73q-195 -40 -195 -171zM841 680l25 -24h12q59 28 109 98v24h-36q-59 -28 -110 -98z" />
    <glyph glyph-name="A" unicode="A" horiz-adv-x="1451" 
d="M852 1758q147 -14 184 -52l-52 -171v-26q160 -757 328 -1053q32 -256 66 -289v-12l-26 -27h-14q-112 142 -315 618h-93q-69 -39 -486 -131q-157 -90 -157 -211q-79 -108 -119 -394h-26q-71 0 -92 52v40q118 210 263 631q41 31 473 776v38q0 55 -39 106q0 58 105 105z
M484 812v-14l52 -13l237 13l119 -13q104 13 104 40v13q0 62 -157 526h-13q-282 -319 -342 -552z" />
    <glyph glyph-name="B" unicode="B" horiz-adv-x="1451" 
d="M542 1703h26q340 -43 340 -223q0 -213 -183 -419v-26h39q447 0 603 -288q0 -236 -341 -406q-61 -81 -484 -184q-66 0 -66 26q-131 -35 -131 -52q0 -131 -52 -131h-26q-30 0 -79 210l-39 39l39 157l39 773h-13q-26 0 -52 -79l-40 -26q-35 5 -52 66q176 563 472 563z
M384 1192l-65 -183v-92q220 0 432 406l13 53v52q-15 45 -118 105h-131q-131 0 -131 -210v-131zM306 655v-79q0 -275 118 -275h91q449 0 682 328v39q0 135 -302 223q-312 0 -576 -184z" />
    <glyph glyph-name="C" unicode="C" horiz-adv-x="1595" 
d="M998 1678l63 -16h16l16 16q364 -94 364 -253q-19 -127 -63 -127h-16q-151 222 -380 222q-305 -72 -491 -333q-237 -317 -237 -585v-64q0 -206 348 -316h190q196 0 665 237l63 -32q-51 -99 -285 -205q-146 -92 -332 -143q0 -29 -206 -79q-522 97 -522 237l-111 238
q0 372 269 696q314 491 633 491z" />
    <glyph glyph-name="D" unicode="D" horiz-adv-x="1479" 
d="M402 1755q0 -87 453 -190q372 -202 511 -658l15 -103q0 -401 -936 -702l-87 -73l-15 15h-44q-49 0 -102 -44h-73q-22 0 -44 59q0 104 219 160l30 44v44l-15 15l15 14v15l-15 73l15 59l-15 190l15 482v44q0 103 -30 103l-58 -30q-88 0 -88 74q0 315 249 409zM489 1463
l-29 -234l15 -88l-15 -88l15 -117l-15 -44l15 -161v-248l14 -59l-14 -58v-15l14 -73h15q457 98 672 336l30 176q-27 251 -307 526q-227 147 -337 147h-73z" />
    <glyph glyph-name="E" unicode="E" horiz-adv-x="1533" 
d="M729 1688l41 -14l137 14q206 -46 206 -110l-14 -14l-41 14q-604 -47 -604 -164q-68 -264 -68 -357v-124q0 -27 41 -27l370 55l55 -14q23 24 330 41v14l13 -14h55l14 14q55 -20 55 -41v-14q0 -59 -384 -165l-14 14h-14q-521 -63 -521 -137q90 -467 343 -467l68 -14
q127 0 632 247h41v-13q-42 -141 -645 -385l-124 -27q-248 0 -411 316l-96 453q27 88 54 480h-82q-96 0 -96 96v55q338 261 563 261z" />
    <glyph glyph-name="F" unicode="F" horiz-adv-x="1472" 
d="M1026 1781q299 -52 299 -117v-91l-39 -13q-54 39 -312 65h-13l-104 -13l-52 13q-173 0 -234 -52l13 -156l-26 -286q12 -130 78 -130l156 26q251 0 325 -195v-39h-78q-69 52 -117 52h-13q-325 0 -325 -65l-13 -13v-91l26 -104l-13 -65l26 -117v-13l-13 -78q36 -50 52 -286
l-13 -13h-104v13l-91 624l13 91l-13 39l-182 -13v13l-26 78q8 47 104 117l65 -13l39 39v325q0 139 -65 208q-75 -17 -221 -156h-39q-9 78 -26 78q120 203 390 299l130 26h338z" />
    <glyph glyph-name="G" unicode="G" horiz-adv-x="1593" 
d="M1036 1709q336 0 336 -278h14q-32 -160 -58 -160q-71 9 -132 204q-96 88 -189 88q-347 0 -614 -438q-102 -86 -102 -365v-59q115 -438 277 -438q38 -52 307 -102q468 77 468 292q-44 190 -161 190q-277 0 -351 -73h-44q-113 0 -146 73v14q0 132 190 132l59 -15l43 15
l44 -15q201 0 292 102h30q124 0 175 -394v-44q0 -283 -394 -380l-15 15q0 -54 -248 -73q-429 0 -629 438l-58 322q49 330 351 671q279 278 555 278z" />
    <glyph glyph-name="H" unicode="H" horiz-adv-x="1410" 
d="M342 1742h13q104 0 104 -247l-39 -286l13 -104l-13 -78l65 -39l234 26l39 -13l143 13h65q39 0 39 52l-13 260l13 65l-52 182q0 49 91 117q117 0 117 -208l-13 -130v-78l13 -52l-13 -39q0 -169 65 -169q52 0 52 -65q0 -29 -117 -130v-13l13 -429h13l-13 -13v-65l13 -13
l-13 -13v-13l26 -169q-195 0 -195 741q-65 0 -65 26l-52 -26l-91 13l-13 -13l-39 13q-295 -13 -338 -39v-26l-13 -143l13 -13v-13l-13 -13v-13l13 -117l-13 -143l13 -65l-13 -52q33 0 39 -169h-13l-104 -39q-52 63 -52 104l13 39l-13 91l13 260h-13l13 13v52l-13 13l13 13
v78q0 22 -91 39l-13 65q104 167 104 221l39 195l-13 117v39l13 143l-52 156v52q21 52 91 52z" />
    <glyph glyph-name="I" unicode="I" horiz-adv-x="696" 
d="M355 1766l106 -27l-13 -244l13 -109q-43 -652 -79 -652v-55l13 -258l-13 -95l13 -123l-13 -107h13l-26 -96h-67q-92 69 -92 163q92 877 92 1332l-26 135q19 71 79 136z" />
    <glyph glyph-name="J" unicode="J" horiz-adv-x="1389" 
d="M1115 1737q62 -72 62 -125l-12 -75q87 -724 87 -925l-25 -62l13 -50q0 -246 -313 -463l-150 -37l-75 12v-12q-206 37 -325 137q-81 0 -237 188v25q0 100 112 100q138 -17 138 -138q112 -129 350 -187q337 43 337 275l38 212l-13 100l13 63q-75 674 -138 837
q49 125 138 125z" />
    <glyph glyph-name="K" unicode="K" horiz-adv-x="1503" 
d="M217 1768q104 0 104 -325l26 -273l-26 -156q34 -104 52 -104h26q404 267 611 546q22 65 117 65q59 -25 65 -52v-13q-4 -57 -377 -338l-416 -351l-39 -52q0 -61 429 -143q611 -91 611 -182l13 -13v-13q-18 -78 -78 -78l-741 182l-13 -13h-13l-156 39h-52v-156
q0 -338 -39 -338h-39q-47 0 -65 221l13 13v13q-24 351 -104 351l-26 39l91 195q-19 819 -65 819q0 104 91 104v13z" />
    <glyph glyph-name="L" unicode="L" horiz-adv-x="1431" 
d="M225 1740l86 -50v-149l11 -16l-11 -17l11 -331v-348l-11 -166q0 -481 151 -481h183l10 17l11 -17l602 116q0 -33 32 -33l11 -16v-17q0 -126 -107 -199l-97 33l-118 -16l-33 16l-64 -49l-419 -17q-291 0 -291 348l-10 149l32 414h-11l11 17v282l-11 16l11 17v16
q-11 180 -54 365q7 83 54 83z" />
    <glyph glyph-name="M" unicode="M" horiz-adv-x="1997" 
d="M645 1719q124 0 124 -261l137 -495q166 -379 220 -399h41q116 78 275 426q110 248 110 344q0 92 124 165q62 -23 96 -83v-288l14 -69l-14 -83v-151l28 -151v-275l-14 -151q55 -76 55 -248q-192 0 -192 234l-42 261l14 55l-27 426h-42q-263 -605 -508 -605
q-147 0 -413 935h-27q-63 -64 -165 -632q-28 0 -28 -165l-110 -399l-69 -55h-41l-41 41q0 85 110 330l275 1169q0 106 110 124z" />
    <glyph glyph-name="N" unicode="N" horiz-adv-x="1606" 
d="M1321 1709q77 0 96 -260l-14 -219l14 -13v-14l-14 -55l14 -54l-27 -137l13 -14v-13l-13 -55l13 -41l-13 -96v-136q-63 -206 -137 -206q-282 110 -438 397q-177 352 -246 437h-13q-46 0 -55 -218q-69 -134 -110 -629q-81 -383 -136 -383h-14q-27 0 -41 137q0 174 150 1107
v82q0 53 69 123v14q-55 58 -55 109q32 110 137 110q153 -194 342 -561q267 -465 369 -465h14l54 287l-13 55l13 178q0 244 -95 396q0 137 136 137z" />
    <glyph glyph-name="O" unicode="O" horiz-adv-x="1708" 
d="M762 1730q258 0 583 -366q183 -300 183 -482v-66l50 -68q-66 -362 -399 -598q-169 -105 -449 -150q-334 0 -467 333l-133 333v66l34 116l-34 83q108 456 350 682q204 117 282 117zM563 1480v-49q50 0 50 -34q-167 -407 -167 -731v-100q79 -383 284 -383h116
q252 0 482 283q83 156 83 266l-16 16v17l16 51q-87 286 -183 399q-273 349 -449 349h-34q-182 -26 -182 -84z" />
    <glyph glyph-name="P" unicode="P" horiz-adv-x="1366" 
d="M666 1760q220 0 492 -238l104 -151l-15 -11v-172q0 -127 -342 -389q-244 -127 -492 -216l-15 -97l45 -259l-15 -11l30 -151q0 -65 -104 -65l-60 216v32q0 324 -45 324l30 367l-15 54l15 87q0 227 -119 399v43q0 155 402 227zM383 1555q30 -163 30 -529h-15l15 -11
l-15 -130v-54l15 -64l-15 -54l15 -11h15q685 223 685 507v44q0 188 -402 345l-74 11q-170 0 -254 -54z" />
    <glyph glyph-name="Q" unicode="Q" horiz-adv-x="1593" 
d="M642 1680q331 -71 449 -243q172 -214 248 -501l-15 -54l31 -41l-62 -243v-41q188 -248 232 -432v-14q0 -97 -139 -311h-16q0 95 31 95l-15 14v107q0 144 -233 366q-250 -181 -464 -217q-442 0 -543 555l-46 176l15 13v95q0 358 388 635zM348 1315l31 -108
q-62 -260 -62 -379q0 -244 310 -473l62 -14q272 51 325 108q0 38 -124 95h-155q-93 0 -93 81q0 135 140 135q183 0 356 -94h15q51 0 62 175q0 238 -310 582q-119 95 -340 95h-16q-201 -126 -201 -203z" />
    <glyph glyph-name="R" unicode="R" horiz-adv-x="1585" 
d="M627 1771h35q227 0 335 -347q-56 -266 -394 -527q58 -50 394 -191q26 -48 228 -179q203 -231 203 -264v-12q-20 -54 -72 -83h-48l-227 263q-420 311 -718 311h-12l-12 -12h-12l12 -96l-12 -72q48 -480 72 -514q-24 0 -24 -36l-12 -12h-12q-70 0 -119 718l12 72
q-9 84 -24 84l12 59v72q-72 104 -72 168l60 323l-36 167q0 96 120 96l59 -96h12q148 108 252 108zM339 1436v-60l-12 -419h96q181 0 395 287l36 132q0 149 -204 227h-59q-125 0 -252 -167z" />
    <glyph glyph-name="S" unicode="S" horiz-adv-x="1366" 
d="M941 1755q269 -26 269 -77q-82 -155 -164 -155q0 73 -164 90h-75q-329 -93 -329 -219v-129q169 -258 538 -646q149 -225 149 -322v-13q0 -230 -478 -284h-59q-478 132 -478 323q0 223 209 258h15l15 -13h15q0 -52 -75 -52l-15 -64v-104q65 -129 373 -219h30
q284 0 284 129q-20 185 -463 645q-199 186 -254 413v52q0 167 374 335z" />
    <glyph glyph-name="T" unicode="T" horiz-adv-x="1801" 
d="M790 1679l11 -14h46l34 14l341 -41l11 13h12l227 -41l57 14q114 -11 114 -41v-28q-40 -124 -239 -124l-125 28l-46 -14l-147 14h-12v-14l34 -413q-22 -61 -22 -179l11 -41h-11l22 -138l-11 -13l11 -97v-124l69 -357v-28l11 -14l-11 -13l-91 -28q-114 338 -114 991h11
q-25 252 -102 330l-12 41l35 124l-12 14l-79 -14h-23l-114 14q-357 -33 -478 -96q-68 28 -68 110q0 99 455 137l171 14h22z" />
    <glyph glyph-name="U" unicode="U" horiz-adv-x="1606" 
d="M1196 1688q154 -35 154 -136l-34 -52v-51l136 -511v-17q0 -512 -733 -886l-136 -35q-323 103 -323 273q-69 0 -103 648l18 50l-18 155v16l18 154l-35 68q40 188 136 188q78 -33 85 -69v-34l-16 -187l16 -222v-51l-16 -187q78 -563 306 -563h68q286 61 563 494v102
q0 284 -239 580v52q108 221 153 221z" />
    <glyph glyph-name="V" unicode="V" horiz-adv-x="1606" 
d="M1367 1699q57 -21 57 -42q0 -218 -198 -482q-119 -524 -156 -524l14 -85q-99 -226 -99 -439q-52 -85 -113 -127q-65 0 -156 198q-174 217 -396 807l-170 255q14 170 99 170q89 0 170 -227q187 -364 269 -623q136 -205 184 -240q39 30 212 736q57 0 142 496q0 107 141 127
z" />
    <glyph glyph-name="W" unicode="W" horiz-adv-x="2264" 
d="M2020 1688h15l89 -74l-30 -89v-15l15 -14l-74 -178l15 -178v-133q-71 -637 -222 -637q0 -29 -119 -29q-276 0 -518 695l-74 104h-15q-79 -1140 -385 -1140q-274 136 -459 1170q0 83 -118 326v59q54 89 178 89l29 -134l-15 -59q45 -99 163 -651q169 -578 311 -578
q163 262 163 740l-15 45l15 207v15l-15 207q40 116 119 134q91 -3 400 -785q131 -222 340 -222q74 61 119 355l-30 267l15 88l-30 252q59 123 133 163z" />
    <glyph glyph-name="X" unicode="X" horiz-adv-x="1606" 
d="M1414 1771q50 -18 50 -38q0 -104 -201 -301q0 -33 -226 -302q0 -29 -113 -163v-25q66 -188 427 -414l100 -13v-88l-62 -50h-76q-76 0 -138 100q-90 0 -251 189l-113 113q-125 -109 -327 -440q-176 -301 -176 -339h-25l-25 25v63q111 312 465 766v25q0 29 -239 302
q-154 213 -301 213q-47 34 -63 101q47 110 75 113h13q176 0 553 -515l88 -63q51 39 515 716z" />
    <glyph glyph-name="Y" unicode="Y" horiz-adv-x="1461" 
d="M1168 1729q68 0 78 -130q-35 -265 -182 -767l-13 -52l39 -65l-143 -390q-82 -313 -143 -325h-26l-39 39v13l78 325q78 283 130 598h-13l-52 -13q-137 22 -273 169l-273 195q-156 71 -156 130q0 97 91 130q67 -22 260 -182q309 -260 390 -260h39q130 146 130 286l-26 208
q22 78 104 78v13z" />
    <glyph glyph-name="Z" unicode="Z" horiz-adv-x="2089" 
d="M1637 1665l15 -76v-16q-35 -105 -290 -198q-320 -320 -688 -947l-45 -138v-15l30 -31l77 16l91 -16h61l214 46l15 -15l306 46l15 -15h15l184 30q274 -19 274 -92l31 -61l-229 -76l-15 15l-932 -76l-76 15l-46 -30l-46 15q-229 -20 -229 -46q-63 0 -92 168q0 26 230 214
q0 60 259 382q0 48 428 641v46h-31v15l-76 -15h-122l-16 -15l-45 15q-77 0 -77 -30l-15 15h-15l-443 -61q-214 10 -214 76v31q108 137 199 137q28 -55 91 -76l657 91l61 -15q0 26 489 46z" />
    <glyph glyph-name="bracketleft" unicode="[" horiz-adv-x="926" 
d="M721 1781h9q52 0 68 -39v-19q-55 -116 -155 -116l-9 10h-10l-49 -30l-9 10h-19q-193 -28 -193 -106v-30l9 -9l-20 -106q20 -241 49 -358v-165l-9 -57l18 -136l-9 -57l9 -79l-9 -135l9 -9v-10l-18 -58q5 -87 18 -87l59 -10q22 20 155 29l67 59q87 -46 87 -107v-19
q0 -22 -97 -68l-29 10q-161 -39 -271 -39h-115q-29 6 -29 77l38 281l-9 9v10q19 86 19 232l-10 10v10q20 48 20 174l-49 522l10 106q-87 55 -87 77q0 88 106 136h10l78 -19q303 38 367 106z" />
    <glyph glyph-name="backslash" unicode="\" horiz-adv-x="1163" 
d="M309 1804q84 -37 163 -277q116 -141 429 -983q53 -225 113 -302q-13 -202 -50 -202h-26q-38 11 -163 315q-227 416 -328 693q0 47 -277 617v38q83 101 139 101z" />
    <glyph glyph-name="bracketright" unicode="]" horiz-adv-x="916" 
d="M696 1780q48 -29 48 -76l-66 -285v-266l-10 -38l19 -38l-9 -29l28 -113l-10 -10v-9l20 -86l-10 -47l19 -76v-76l38 -66l-9 -38q18 -238 47 -342l-114 -105l-86 29l-189 -29h-67q-29 9 -29 57q0 66 67 66h86l56 10l48 -10q72 26 76 48q-38 98 -38 380q-38 158 -48 294
l10 48l-19 48l9 9v38l-9 9l19 114h-10l10 10v47l28 352v9h-9l-209 -29l-29 10q-150 -10 -275 -48l-19 20v85q24 48 76 48h86q446 39 446 85h28z" />
    <glyph glyph-name="asciicircum" unicode="^" horiz-adv-x="1225" 
d="M574 1855h101q54 0 101 -265q31 -12 190 -290q151 -25 151 -152v-12q-44 -164 -164 -164q-53 34 -290 555l-63 13q-225 -226 -316 -556q-89 -88 -176 -88l-13 13v37l214 379q265 413 265 530z" />
    <glyph glyph-name="underscore" unicode="_" horiz-adv-x="1863" 
d="M243 273h65l195 -39l104 13l78 -13l39 13q377 -30 377 -65l117 13l286 -13l143 26q117 0 117 -91l-169 -117h-13q-92 39 -520 39h-52l-13 -13l-130 26l-260 -13h-26q-78 -8 -78 -39l-156 13h-26l-52 -13l-169 26v26q0 97 143 221z" />
    <glyph glyph-name="grave" unicode="`" horiz-adv-x="922" 
d="M504 1605q28 -73 28 -242q1 -35 1.5 -155.5t7 -197.5t26.5 -138q0 -42 -26.5 -66.5t-65.5 -27.5q-46 7 -54 37q-38 113 -47 341v161q0 170 -24 235q0 45 25 70t62 25q52 0 67 -42z" />
    <glyph glyph-name="a" unicode="a" horiz-adv-x="1606" 
d="M822 1196q182 -57 260 -208l39 -78h39q0 121 91 156q91 0 91 -182l-26 -156q0 -555 195 -676l-52 -52h-78q-107 39 -156 195q0 65 -26 104l13 39q-34 182 -65 182l-312 -286q-163 -78 -260 -78h-13q-264 0 -390 286q-52 150 -52 260q0 355 559 481zM237 806v-117
q0 -26 39 -26l117 13l26 -26l-13 -91v-65q48 -143 169 -143q189 0 429 377l13 91q0 173 -273 234h-169q-168 -31 -338 -247z" />
    <glyph glyph-name="b" unicode="b" horiz-adv-x="1523" 
d="M384 1853q61 -20 61 -60q0 -103 -49 -253l25 -84q0 -291 -37 -662q16 -433 49 -433l336 421l253 169l84 -12v12q193 -115 193 -361l12 -12q0 -215 -397 -458q-295 -120 -409 -120q-29 0 -205 144l-24 434l24 541q-48 72 -48 108v121l-12 12q32 445 72 445zM541 168
l60 -12h60q288 62 469 253q37 77 37 241q-49 132 -133 132q-202 0 -481 -469z" />
    <glyph glyph-name="c" unicode="c" horiz-adv-x="1400" 
d="M714 1215h23q137 0 215 -216q0 -78 -68 -136q-33 0 -102 193l-91 23q-289 0 -409 -591q55 -352 330 -352q167 0 579 250h23v-23h11q0 -60 -284 -227q-225 -136 -432 -136q-295 125 -295 238l-34 171q0 325 329 727q153 79 205 79z" />
    <glyph glyph-name="d" unicode="d" horiz-adv-x="1420" 
d="M973 1785q78 -37 78 -145l-11 -100l23 -536l-12 -11v-11q23 -44 23 -123v-89l11 -11l-11 -12v-11q33 -390 89 -390q45 0 67 -45v-22q0 -19 -56 -34q-48 -121 -78 -133h-33q-19 0 -45 67h-67q-338 -179 -402 -179q-240 0 -368 491l-11 100q0 357 290 357q209 0 513 -412
h23v11l-11 390l-12 11v11l12 45v11q0 78 -23 78l11 11q-13 312 -33 335l11 56q-33 130 -33 223q15 46 55 67zM293 703v-22q0 -321 122 -402q0 -34 123 -123h34q135 0 413 156v12q-69 239 -380 490l-190 23q-102 0 -122 -134z" />
    <glyph glyph-name="e" unicode="e" horiz-adv-x="1503" 
d="M559 1205q310 -67 310 -166l11 -11q-104 -264 -542 -531v-33q54 -189 155 -243q160 -109 309 -122q148 0 354 199q55 100 100 255l11 11h22q66 0 66 -67q0 -96 -254 -375q-102 -69 -277 -111l-11 11h-11l-44 -22q-258 55 -343 155q-11 41 -121 155q0 104 -144 143v11
q0 45 77 144l-33 55v11l11 100l-11 33q157 398 365 398zM283 685l11 -77h22q223 47 398 299l22 77q-134 77 -199 77q-175 0 -254 -287v-89z" />
    <glyph glyph-name="f" unicode="f" horiz-adv-x="1441" 
d="M888 1710q128 0 155 -184q0 -104 -42 -134q-27 0 -92 170l-42 14h-21q-140 0 -226 -565l7 -70v-43h28l71 14l28 -7q65 28 204 28h71q30 0 49 -28q0 -64 -437 -134l-7 -7h-7v-14l-7 -35l7 -36l-7 -49l7 -7v-7l-7 -7v-7l14 -78l-7 -7v-7l14 -141l-7 -21l7 -36l-7 -42
l14 -21l-7 -57q0 -137 49 -162l14 -35h-7l29 -49l-7 -29q0 -47 77 -98l28 14q75 -36 106 -36q133 0 318 254q35 -8 35 -56q-102 -219 -205 -219q-89 -59 -211 -92q-170 0 -261 360q-78 471 -78 621v36l-7 7l7 7v14l-21 21l-141 -57q-106 8 -106 50q0 106 71 106v7l7 -7h28
q148 15 148 42q42 445 127 614q72 205 247 205z" />
    <glyph glyph-name="g" unicode="g" horiz-adv-x="1472" 
d="M832 1197h116q98 -88 98 -152l-8 -54v-9q0 -13 98 -62q116 -196 116 -367l-9 -36v-18l9 -9l-9 -26q0 -331 -179 -617q-171 -164 -339 -178l-27 -9v-10l-45 10h-152l-80 27v-9q-331 90 -331 197v9q60 71 232 71v-9q0 -14 -62 -45l-9 -45q104 -107 303 -107l9 10h10l53 -19
q453 0 536 527l9 44l-9 10v9l9 35q-21 510 -125 510h-35l-161 -223q-173 -206 -304 -206q-143 0 -143 152l-9 72v71q51 286 116 286h36l27 -18h27q66 128 232 188zM492 661q24 -81 45 -81h26q127 80 304 286q30 0 99 90v71q0 74 -80 89h-36q-213 0 -358 -455zM662 580l9 -9
v-9q29 0 134 125v18h-17q-108 -90 -126 -125z" />
    <glyph glyph-name="h" unicode="h" horiz-adv-x="1272" 
d="M236 1742q48 0 48 -117v-52l-10 -143l10 -169v-208l9 -52l-9 -39q55 -677 133 -754h10q215 299 333 858l47 52q87 0 115 -325q66 -440 209 -650v-13l-48 -52q-200 30 -200 286q-60 365 -95 442q-82 -163 -228 -559q-127 -247 -210 -247q-71 0 -133 546q-28 281 -38 702
l10 39l-10 143l10 13v13l-29 182q0 42 76 104z" />
    <glyph glyph-name="i" unicode="i" horiz-adv-x="640" 
d="M262 1442q55 0 136 -261q-16 -47 -57 -68h-11q-170 131 -170 204q45 102 102 125zM331 1026q65 0 91 -108q-39 -197 -39 -335h13l-26 -129q22 -378 78 -378v-11q-52 -65 -104 -65q-95 0 -104 378l26 97l-26 43l13 76l-13 11l13 54v173q0 56 -39 97v11q69 86 117 86z" />
    <glyph glyph-name="j" unicode="j" horiz-adv-x="1564" 
d="M1079 1317q80 -32 80 -106q-9 -73 -53 -73q-100 22 -100 73v40q0 39 73 66zM1112 1006h14q86 0 86 -133q66 -235 66 -610v-53q-7 -471 -305 -523l-79 -7q-257 0 -471 213q-73 91 -73 178v27q0 116 212 192h7q36 0 46 -33q0 -15 -113 -93l-46 -60v-13q0 -154 338 -285
l159 -19q163 0 212 271l7 139v79q0 406 -93 590q-18 0 -33 67q20 73 66 73z" />
    <glyph glyph-name="k" unicode="k" horiz-adv-x="1391" 
d="M186 1759h56q60 0 67 -314l-11 -157q0 -571 56 -571h22l258 247l213 246l67 11l11 -11v-22q-26 -152 -145 -224q-171 -182 -280 -404v-33l358 -12h67l269 -56l68 12l22 -34v-34q-49 -67 -190 -67h-45l-336 45l-337 -11l-22 -34v-157l34 -56q0 -59 -79 -123q-56 21 -56 90
l11 123l-67 190h-22v12l33 224l-11 123l11 45l-22 313l11 101l-11 79l11 56q-31 204 -67 280v67z" />
    <glyph glyph-name="l" unicode="l" horiz-adv-x="549" 
d="M277 1795q35 0 65 -175l-13 -14l26 -229q-26 -138 -26 -432l13 -68l-13 -67l13 -13l-13 -68l39 -391l-13 -14v-13l13 -81v-95l39 -54v-27l-26 -54h-13q-110 0 -143 270v27l26 108l-52 338l13 134l-13 41l26 216l-13 323q-52 139 -52 217q22 121 117 121z" />
    <glyph glyph-name="m" unicode="m" horiz-adv-x="1904" 
d="M849 1188q99 -102 153 -633l-13 -61l13 -16h13q35 0 344 617q77 11 77 31q87 0 178 -586q64 -184 153 -262v-47q0 -38 -127 -46q-204 146 -204 370q-26 0 -26 124l-13 62l-25 61h-26q-38 0 -267 -463q-101 -216 -191 -216h-26l-38 232l13 15v16q-33 463 -64 463
q-56 -30 -370 -710q-26 -1 -115 -139h-63q-26 0 -51 123l12 16l-25 401l13 123l-64 324q0 60 64 139q140 0 140 -355l-13 -61q23 -371 51 -371q131 108 255 463q123 386 242 386z" />
    <glyph glyph-name="n" unicode="n" horiz-adv-x="1346" 
d="M738 1236q214 0 338 -921l82 -93v-24q0 -31 -163 -70q-82 0 -82 280q0 305 -128 571l-47 59h-47q-139 -159 -186 -455l-140 -373l12 -82h-12q-110 -128 -152 -128v12l-23 70l35 361l-12 35l24 198l-47 315q35 117 117 117q58 -28 58 -280v-58l12 -12q-24 -61 -24 -245
v-12h12q23 0 105 292q144 398 268 443z" />
    <glyph glyph-name="o" unicode="o" horiz-adv-x="1327" 
d="M498 1261h13q216 0 455 -195q0 -32 104 -91q60 -77 130 -377q0 -198 -299 -468q-173 -130 -286 -130h-52q-247 0 -364 455l-39 247q0 434 338 559zM316 728q0 -126 221 -338v-26l-78 26q-59 -25 -65 -52q115 -195 260 -195q259 0 403 325q26 51 26 143q0 318 -494 507
q-247 -85 -247 -234q-23 0 -26 -156z" />
    <glyph glyph-name="p" unicode="p" horiz-adv-x="1263" 
d="M332 1156h13q49 -27 95 -27q65 27 175 27h67q201 -38 297 -145q121 -141 121 -182q0 -243 -768 -400q-27 -20 -41 -100q41 -449 81 -526l-13 -45q0 -46 27 -46q-17 -82 -41 -82h-40l-95 282l14 55l-41 154l14 27l-27 181l54 691l-14 82q34 54 122 54zM318 547l14 -36h81
q368 66 498 200v9q0 239 -242 309l-81 9q-216 0 -216 -164z" />
    <glyph glyph-name="q" unicode="q" horiz-adv-x="1135" 
d="M558 1152l50 -10l30 10l109 -30l50 30q58 0 69 -219l-40 -179v-139l-10 -60l10 -10v-10l-10 -39l10 -70l-10 -70l20 -29l-10 -10v-70l10 -159l-10 -30q11 -59 70 -119q0 -108 -89 -209q-27 0 -50 50l10 100q-13 646 -30 646l10 49l-30 20h-10q-79 -69 -159 -69h-60
q-258 52 -258 218h-10l10 10l-20 110q0 105 109 218q132 70 239 70zM319 943q37 0 60 -159q43 -119 109 -119h10q100 0 239 298v10q-24 109 -169 109q-249 -21 -249 -129v-10zM667 685l10 -10h10l30 39v30h-10q-40 -20 -40 -59z" />
    <glyph glyph-name="r" unicode="r" horiz-adv-x="1007" 
d="M534 1170q295 0 295 -193q0 -61 -45 -80h-23q-95 91 -227 91q-80 -27 -103 -329l-11 -46v-22h11l-11 -114v-57q0 -160 80 -329q-32 -91 -91 -91h-12q-62 63 -170 636l-57 68v57q11 91 91 91l91 -23h11q23 330 159 330z" />
    <glyph glyph-name="s" unicode="s" horiz-adv-x="1024" 
d="M667 1254q127 -17 127 -117q-14 -74 -42 -74h-11q-56 53 -85 53q-230 0 -329 -160q0 -119 340 -425q123 -130 138 -287q-51 -180 -106 -180q-38 -53 -223 -53l-32 -11q-106 27 -160 106q-63 0 -63 117q0 67 106 75l11 -11h10l-10 -53q73 -106 180 -106h43q123 0 138 95
v75q-122 207 -276 286l-170 192q-43 113 -43 180q21 129 372 287z" />
    <glyph glyph-name="t" unicode="t" horiz-adv-x="1401" 
d="M525 1698h20l29 -20l-89 -602l-9 -178q0 -19 29 -19l395 98l49 -10l60 10l9 -10v-9q-81 -50 -503 -198q-29 0 -49 -39v-50q0 -424 266 -543h79q163 0 464 277h10v-10q-175 -294 -513 -395h-10q-242 0 -355 415q-18 0 -20 49v10l10 89l-10 98v30q-14 40 -89 40
q-39 -30 -109 -30l-49 99q8 33 59 59l178 -10q30 48 30 109l-10 29l79 701z" />
    <glyph glyph-name="u" unicode="u" horiz-adv-x="1236" 
d="M978 1195q71 0 79 -812q-41 -184 -175 -255q-89 -89 -319 -128q-302 50 -302 415l-111 462q38 190 175 190l48 -63v-111l16 -65l-16 -16v-16q52 -589 287 -589q131 0 254 223v208q0 202 -112 334v16q41 207 176 207z" />
    <glyph glyph-name="v" unicode="v" horiz-adv-x="1199" 
d="M938 1255q109 -14 109 -109l-14 -14h-13l13 -68q0 -57 -82 -218l-95 -669v-13q-41 -115 -123 -164h-14q-149 147 -286 450l-218 368q-38 0 -55 137q83 82 136 82h14q24 0 232 -464q166 -273 191 -273q62 0 109 696v68q0 124 96 191z" />
    <glyph glyph-name="w" unicode="w" horiz-adv-x="1877" 
d="M256 1071l188 -405q218 -370 275 -391h15q57 0 86 304v130l-14 87q32 145 72 145q96 0 304 -405q158 -203 275 -203q36 58 73 420l-29 173q53 131 130 131q44 0 87 -58q0 -154 -87 -261q-49 -622 -231 -622q-183 0 -449 492h-15q-94 -608 -202 -608q-228 193 -522 810
l-72 73v43q24 145 116 145z" />
    <glyph glyph-name="x" unicode="x" horiz-adv-x="1373" 
d="M262 1190h14l479 -450l218 276l159 130q58 -14 58 -87q0 -105 -203 -159q0 -33 -159 -232q33 -106 304 -320q87 0 102 -116l-58 -130h-44q-70 29 -420 377q-44 0 -247 -334q0 -145 -145 -145h-29l-15 44q0 40 160 261q188 233 188 275q-183 266 -464 436v29
q41 116 102 145z" />
    <glyph glyph-name="y" unicode="y" horiz-adv-x="1686" 
d="M1142 1318q68 0 68 -147q0 -207 53 -433l68 -454l-7 -47l15 -47q0 -355 -243 -533l-137 -27q-275 0 -471 194q-68 29 -68 80q15 67 76 67q56 0 159 -140q153 -100 289 -100h38q216 24 251 413l-8 93v27l-8 7l8 20l-106 627h-15q-168 -230 -281 -254q-211 0 -259 307
q0 56 -45 200q8 67 60 67h16q60 0 60 -134l46 -200q36 -81 106 -120h23q93 0 228 267l23 87l-8 127q35 53 69 53z" />
    <glyph glyph-name="z" unicode="z" horiz-adv-x="1401" 
d="M1197 1181q49 -12 49 -73v-50q-22 -62 -172 -160l-271 -345q0 -32 -284 -282l-37 -50v-12q0 -34 308 -49l124 12h85q62 -3 62 -24l62 12q53 0 74 -49q0 -81 -370 -111l-296 24l-122 -12q-210 0 -235 75q0 126 197 159q525 481 604 664q28 0 38 62h-14l-776 -197
q-49 0 -73 111q11 46 87 74l98 -12q697 172 862 233z" />
    <glyph glyph-name="braceleft" unicode="{" horiz-adv-x="998" 
d="M664 1782q22 0 43 -25q-21 -57 -68 -94l-119 26q-102 -32 -102 -68v-94q0 -177 59 -391v-119l-8 -85q102 0 102 -161l-51 -408q0 -187 85 -187h8q201 0 272 -26v-17q0 -37 -255 -85v-8q-195 20 -195 93q-17 0 -43 238q31 60 60 323v68q-75 77 -170 77l-77 -9v9l-25 59v17
q0 51 85 94l42 -9h17q34 14 34 60v8l-25 85l-9 128l9 42l-34 238v34q37 170 127 170z" />
    <glyph glyph-name="bar" unicode="|" horiz-adv-x="631" 
d="M376 1841q56 0 78 -167l-65 -246l13 -44l-26 -358l13 -301l-13 -78l52 -256l-13 -212v-67q-26 -112 -130 -112h-13q-39 11 -39 67v112l-13 156q52 74 52 513l-13 100l26 134l-13 34l39 279q-13 291 -52 346q0 100 117 100z" />
    <glyph glyph-name="braceright" unicode="}" horiz-adv-x="998" 
d="M541 1796h49q65 -19 65 -106l16 -65l-16 -228l8 -32l-8 -74v-170q32 -147 57 -147h8l57 33q65 -21 65 -49q-28 -139 -130 -139q-41 -26 -41 -65q41 -146 57 -390q16 0 16 -33q-67 -277 -276 -277q-130 -8 -130 -24q-90 0 -90 57h-8q10 73 57 73l73 -24h16q179 0 228 106
l8 40l-16 171l8 49q-65 236 -65 293v24q33 13 33 57v17q-29 0 -49 81l32 326h-8l8 8v24l-8 25l8 40v220q-9 65 -48 65q-139 0 -228 -65q-38 15 -41 33v32q0 57 90 57q25 29 203 57z" />
    <glyph glyph-name="asciitilde" unicode="~" horiz-adv-x="1196" 
d="M433 1590q50 -39 297 -377l34 -11q57 0 114 68v69q-46 0 -46 80h-11q23 171 126 171q49 -28 68 -80l-11 -183l11 -11q-25 -217 -171 -217q-54 -57 -137 -57q-92 0 -297 342h-34q-38 0 -69 -159l12 -80q0 -28 -92 -103q-68 25 -68 114q103 434 274 434z" />
    <glyph glyph-name="Adieresis" unicode="&#xc4;" horiz-adv-x="1366" 
 />
    <glyph glyph-name="Aring" unicode="&#xc5;" horiz-adv-x="1366" 
 />
    <glyph glyph-name="Ccedilla" unicode="&#xc7;" horiz-adv-x="1620" 
d="M793 1767q456 -97 456 -318q-28 -86 -68 -96q-144 205 -374 276q-303 0 -428 -304l-41 -317q48 0 56 -139q167 -220 303 -220q176 0 731 179l42 -14q0 -56 -331 -192q-321 -139 -428 -139h-97q-208 0 -386 345l14 14v14l-42 234q0 221 124 388q56 139 235 220
q32 27 234 69zM877 414l68 -28l28 28h14q0 -44 110 -69l42 14q82 -14 82 -41l-13 -14h-27l-97 14q0 -34 -359 -124l-276 -194q-70 19 -70 97q0 125 414 289q84 10 84 28z" />
    <glyph glyph-name="Eacute" unicode="&#xc9;" horiz-adv-x="1366" 
 />
    <glyph glyph-name="Ntilde" unicode="&#xd1;" horiz-adv-x="1479" 
 />
    <glyph glyph-name="Odieresis" unicode="&#xd6;" horiz-adv-x="1593" 
d="M831 1764q81 0 81 -400q26 -116 109 -188q0 -49 177 -129q231 -216 231 -517v-71q0 -376 -475 -448l-109 -11h-163q-208 44 -312 165q-150 172 -150 329q0 135 217 376q136 219 340 294h14v12q-96 244 -96 494q52 94 136 94zM1144 1729h27q81 -41 81 -106l-40 -259v-176
q0 -24 -41 -24q-58 0 -122 154l13 11l-27 318q0 26 109 82zM519 788l54 -11v-24q-149 -72 -149 -247q0 -165 163 -306q44 -38 231 -83q502 0 502 389q-112 552 -502 552q-299 -169 -299 -270z" />
    <glyph glyph-name="Udieresis" unicode="&#xdc;" horiz-adv-x="1593" 
d="M668 1813h71q51 0 99 -407q19 0 28 -98l28 -25v-38l-42 -36h-56q-99 0 -170 370l14 49q-42 13 -42 74q32 111 70 111zM1007 1776q113 -12 113 -99l-14 -185l28 -61l-14 -50l28 -49l-42 -49h-14q-108 0 -183 370q33 83 98 123zM1204 1209q99 -18 99 -49v-75
q127 -323 127 -432v-12q0 -359 -366 -567q-102 -52 -283 -74q-207 34 -337 185q-128 246 -128 690q-56 56 -56 112v24q0 73 113 123q42 -2 99 -98l-14 -37q58 -827 366 -827q451 69 451 358l14 87v36q0 82 -211 432q0 58 126 124z" />
    <glyph glyph-name="aacute" unicode="&#xe1;" 
 />
    <glyph glyph-name="agrave" unicode="&#xe0;" 
 />
    <glyph glyph-name="acircumflex" unicode="&#xe2;" 
 />
    <glyph glyph-name="adieresis" unicode="&#xe4;" 
 />
    <glyph glyph-name="atilde" unicode="&#xe3;" 
 />
    <glyph glyph-name="aring" unicode="&#xe5;" 
 />
    <glyph glyph-name="ccedilla" unicode="&#xe7;" horiz-adv-x="1336" 
d="M659 1227q203 0 203 -181l-22 -97h-21q-23 6 -96 139l-53 22q-265 0 -373 -416q42 -267 191 -267q178 0 640 224h21l22 -22v-11q0 -45 -288 -181q-168 -96 -405 -149q-245 0 -288 299v11q0 227 245 501q147 114 224 128zM659 181q214 0 256 -107v-31h-21q-42 31 -117 31
q0 -23 -235 -42l-54 -32q-27 0 -53 54q0 127 214 127h10z" />
    <glyph glyph-name="eacute" unicode="&#xe9;" 
d="M197 1542q19 -76 19 -249q0 -186 -21.5 -330.5t-99.5 -164.5q-46 11 -66 42t-29 94q0 40 15.5 169t15.5 216q0 61 -10 158q0 63 25 95.5t62 32.5q75 0 89 -63zM609 1551q22 -105 22 -315q0 -146 -12.5 -265t-33.5 -141q-17 -24 -64 -37q-52 14 -67.5 49t-26.5 123
q0 43 8.5 156t8.5 185q0 76 -11 187q0 121 88 121q73 0 88 -63z" />
    <glyph glyph-name="egrave" unicode="&#xe8;" 
 />
    <glyph glyph-name="ecircumflex" unicode="&#xea;" 
 />
    <glyph glyph-name="edieresis" unicode="&#xeb;" 
 />
    <glyph glyph-name="iacute" unicode="&#xed;" horiz-adv-x="569" 
 />
    <glyph glyph-name="igrave" unicode="&#xec;" horiz-adv-x="569" 
 />
    <glyph glyph-name="icircumflex" unicode="&#xee;" horiz-adv-x="569" 
 />
    <glyph glyph-name="idieresis" unicode="&#xef;" horiz-adv-x="569" 
 />
    <glyph glyph-name="ntilde" unicode="&#xf1;" 
 />
    <glyph glyph-name="oacute" unicode="&#xf3;" 
 />
    <glyph glyph-name="ograve" unicode="&#xf2;" 
 />
    <glyph glyph-name="ocircumflex" unicode="&#xf4;" 
 />
    <glyph glyph-name="odieresis" unicode="&#xf6;" horiz-adv-x="1227" 
d="M879 1474q63 -25 63 -74l-32 -276h-21q-38 0 -106 244v11q29 84 96 84v11zM507 1442h32q64 0 64 -116l95 -234l74 11v-32q0 -17 -106 -85h-10q-79 0 -191 308q-25 0 -32 74q0 29 74 74zM645 923q140 0 340 -191q42 -48 74 -212q0 -182 -371 -467q-89 -53 -234 -53
q-139 0 -223 265l-21 212q0 225 180 308q133 138 255 138zM390 562v-127q26 -234 128 -234v-21l-21 -32q22 -42 53 -42q413 149 413 435q0 180 -328 265q-192 0 -245 -244z" />
    <glyph glyph-name="otilde" unicode="&#xf5;" 
 />
    <glyph glyph-name="uacute" unicode="&#xfa;" 
 />
    <glyph glyph-name="ugrave" unicode="&#xf9;" 
 />
    <glyph glyph-name="ucircumflex" unicode="&#xfb;" 
 />
    <glyph glyph-name="udieresis" unicode="&#xfc;" horiz-adv-x="1276" 
d="M426 1406l88 -41l-16 -104v-82l16 -11l-16 -10v-62q0 -67 59 -125q40 0 101 74q0 299 103 299h14q66 -20 73 -41v-21l-58 -300l29 -62q-15 -41 -58 -41l-88 41h-15q-141 -93 -174 -93q-145 0 -145 321h-14l14 10v134l-14 11q41 103 101 103zM310 724h15l58 -42l-58 -217
v-155q0 -145 232 -176h73q282 0 319 145v31q0 81 -116 279v10q0 70 116 114q73 0 102 -114l-14 -82q46 -41 72 -207q0 -242 -537 -310h-74q-290 62 -290 134q-38 0 -58 187q0 392 116 392z" />
    <glyph glyph-name="dagger" unicode="&#x2020;" 
 />
    <glyph glyph-name="degree" unicode="&#xb0;" horiz-adv-x="819" 
 />
    <glyph glyph-name="cent" unicode="&#xa2;" 
 />
    <glyph glyph-name="sterling" unicode="&#xa3;" 
 />
    <glyph glyph-name="section" unicode="&#xa7;" 
 />
    <glyph glyph-name="bullet" unicode="&#x2022;" horiz-adv-x="717" 
 />
    <glyph glyph-name="paragraph" unicode="&#xb6;" horiz-adv-x="1100" 
 />
    <glyph glyph-name="germandbls" unicode="&#xdf;" horiz-adv-x="1251" 
 />
    <glyph glyph-name="registered" unicode="&#xae;" horiz-adv-x="1509" 
 />
    <glyph glyph-name="copyright" unicode="&#xa9;" horiz-adv-x="1509" 
 />
    <glyph glyph-name="trademark" unicode="&#x2122;" horiz-adv-x="2048" 
 />
    <glyph glyph-name="acute" unicode="&#xb4;" horiz-adv-x="682" 
d="M154 1655q28 -73 28 -242q1 -35 1.5 -155.5t7 -197.5t26.5 -138q0 -42 -26.5 -66.5t-65.5 -27.5q-46 7 -54 37q-38 113 -47 341v161q0 170 -24 235q0 45 25 70t62 25q52 0 67 -42z" />
    <glyph glyph-name="dieresis" unicode="&#xa8;" horiz-adv-x="682" 
 />
    <glyph glyph-name="notequal" unicode="&#x2260;" horiz-adv-x="1124" 
 />
    <glyph glyph-name="AE" unicode="&#xc6;" horiz-adv-x="2048" 
 />
    <glyph glyph-name="Oslash" unicode="&#xd8;" horiz-adv-x="1593" 
 />
    <glyph glyph-name="infinity" unicode="&#x221e;" horiz-adv-x="1460" 
 />
    <glyph glyph-name="plusminus" unicode="&#xb1;" horiz-adv-x="1124" 
 />
    <glyph glyph-name="lessequal" unicode="&#x2264;" horiz-adv-x="1124" 
 />
    <glyph glyph-name="greaterequal" unicode="&#x2265;" horiz-adv-x="1124" 
 />
    <glyph glyph-name="yen" unicode="&#xa5;" 
 />
    <glyph glyph-name="mu" unicode="&#xb5;" horiz-adv-x="1180" 
 />
    <glyph glyph-name="partialdiff" unicode="&#x2202;" horiz-adv-x="1012" 
 />
    <glyph glyph-name="summation" unicode="&#x2211;" horiz-adv-x="1460" 
 />
    <glyph glyph-name="product" unicode="&#x220f;" horiz-adv-x="1686" 
 />
    <glyph glyph-name="glyph155" horiz-adv-x="1124" 
 />
    <glyph glyph-name="integral" unicode="&#x222b;" horiz-adv-x="561" 
 />
    <glyph glyph-name="ordfeminine" unicode="&#xaa;" horiz-adv-x="758" 
 />
    <glyph glyph-name="ordmasculine" unicode="&#xba;" horiz-adv-x="748" 
 />
    <glyph glyph-name="Omega" unicode="&#x2126;" horiz-adv-x="1573" 
 />
    <glyph glyph-name="ae" unicode="&#xe6;" horiz-adv-x="1821" 
 />
    <glyph glyph-name="oslash" unicode="&#xf8;" horiz-adv-x="1251" 
 />
    <glyph glyph-name="questiondown" unicode="&#xbf;" horiz-adv-x="1251" 
 />
    <glyph glyph-name="exclamdown" unicode="&#xa1;" horiz-adv-x="682" 
 />
    <glyph glyph-name="logicalnot" unicode="&#xac;" horiz-adv-x="1196" 
 />
    <glyph glyph-name="radical" unicode="&#x221a;" horiz-adv-x="1124" 
 />
    <glyph glyph-name="florin" unicode="&#x192;" 
 />
    <glyph glyph-name="approxequal" unicode="&#x2248;" horiz-adv-x="1124" 
 />
    <glyph glyph-name="Delta" unicode="&#x2206;" horiz-adv-x="1253" 
 />
    <glyph glyph-name="guillemotleft" unicode="&#xab;" 
 />
    <glyph glyph-name="guillemotright" unicode="&#xbb;" 
 />
    <glyph glyph-name="ellipsis" unicode="&#x2026;" horiz-adv-x="2048" 
 />
    <glyph glyph-name="Agrave" unicode="&#xc0;" horiz-adv-x="1366" 
 />
    <glyph glyph-name="Atilde" unicode="&#xc3;" horiz-adv-x="1366" 
 />
    <glyph glyph-name="Otilde" unicode="&#xd5;" horiz-adv-x="1593" 
 />
    <glyph glyph-name="OE" unicode="&#x152;" horiz-adv-x="2048" 
 />
    <glyph glyph-name="oe" unicode="&#x153;" horiz-adv-x="1933" 
 />
    <glyph glyph-name="endash" unicode="&#x2013;" 
 />
    <glyph glyph-name="emdash" unicode="&#x2014;" horiz-adv-x="2048" 
 />
    <glyph glyph-name="quotedblleft" unicode="&#x201c;" horiz-adv-x="1238" 
d="M498 1542q19 -76 19 -249q0 -186 -21.5 -330.5t-99.5 -164.5q-46 11 -66 42t-29 94q0 40 15.5 169t15.5 216q0 61 -10 158q0 63 25 95.5t62 32.5q75 0 89 -63zM910 1551q22 -105 22 -315q0 -146 -12.5 -265t-33.5 -141q-17 -24 -64 -37q-52 14 -67.5 49t-26.5 123
q0 43 8.5 156t8.5 185q0 76 -11 187q0 121 88 121q73 0 88 -63z" />
    <glyph glyph-name="quotedblright" unicode="&#x201d;" horiz-adv-x="1220" 
d="M485 1542q19 -76 19 -249q0 -186 -21.5 -330.5t-99.5 -164.5q-46 11 -66 42t-29 94q0 40 15.5 169t15.5 216q0 61 -10 158q0 63 25 95.5t62 32.5q75 0 89 -63zM897 1551q22 -105 22 -315q0 -146 -12.5 -265t-33.5 -141q-17 -24 -64 -37q-52 14 -67.5 49t-26.5 123
q0 43 8.5 156t8.5 185q0 76 -11 187q0 121 88 121q73 0 88 -63z" />
    <glyph glyph-name="quoteleft" unicode="&#x2018;" horiz-adv-x="503" 
d="M286 1655q28 -73 28 -242q1 -35 1.5 -155.5t7 -197.5t26.5 -138q0 -42 -26.5 -66.5t-65.5 -27.5q-46 7 -54 37q-38 113 -47 341v161q0 170 -24 235q0 45 25 70t62 25q52 0 67 -42z" />
    <glyph glyph-name="quoteright" unicode="&#x2019;" horiz-adv-x="498" 
d="M286 1655q28 -73 28 -242q1 -35 1.5 -155.5t7 -197.5t26.5 -138q0 -42 -26.5 -66.5t-65.5 -27.5q-46 7 -54 37q-38 113 -47 341v161q0 170 -24 235q0 45 25 70t62 25q52 0 67 -42z" />
    <glyph glyph-name="divide" unicode="&#xf7;" horiz-adv-x="1124" 
 />
    <glyph glyph-name="lozenge" unicode="&#x25ca;" horiz-adv-x="1012" 
 />
    <glyph glyph-name="ydieresis" unicode="&#xff;" horiz-adv-x="1024" 
 />
    <glyph glyph-name="Ydieresis" unicode="&#x178;" horiz-adv-x="1366" 
 />
    <glyph glyph-name="fraction" unicode="&#x2044;" horiz-adv-x="342" 
 />
    <glyph glyph-name="fraction" unicode="&#x2215;" horiz-adv-x="342" 
 />
    <glyph glyph-name="Euro" unicode="&#x20ac;" 
 />
    <glyph glyph-name="guilsinglleft" unicode="&#x2039;" horiz-adv-x="682" 
 />
    <glyph glyph-name="guilsinglright" unicode="&#x203a;" horiz-adv-x="682" 
 />
    <glyph glyph-name="uniF001" unicode="&#xf001;" horiz-adv-x="1024" 
 />
    <glyph glyph-name="uniF001" unicode="&#xfb01;" horiz-adv-x="1024" 
 />
    <glyph glyph-name="uniF002" unicode="&#xf002;" horiz-adv-x="1024" 
 />
    <glyph glyph-name="uniF002" unicode="&#xfb02;" horiz-adv-x="1024" 
 />
    <glyph glyph-name="daggerdbl" unicode="&#x2021;" 
 />
    <glyph glyph-name="periodcentered" unicode="&#xb7;" horiz-adv-x="569" 
 />
    <glyph glyph-name="periodcentered" unicode="&#x2219;" horiz-adv-x="569" 
 />
    <glyph glyph-name="quotesinglbase" unicode="&#x201a;" horiz-adv-x="455" 
 />
    <glyph glyph-name="quotedblbase" unicode="&#x201e;" horiz-adv-x="682" 
 />
    <glyph glyph-name="perthousand" unicode="&#x2030;" horiz-adv-x="2048" 
 />
    <glyph glyph-name="Acircumflex" unicode="&#xc2;" horiz-adv-x="1366" 
 />
    <glyph glyph-name="Ecircumflex" unicode="&#xca;" horiz-adv-x="1366" 
 />
    <glyph glyph-name="Aacute" unicode="&#xc1;" horiz-adv-x="1366" 
 />
    <glyph glyph-name="Edieresis" unicode="&#xcb;" horiz-adv-x="1366" 
 />
    <glyph glyph-name="Egrave" unicode="&#xc8;" horiz-adv-x="1366" 
 />
    <glyph glyph-name="Iacute" unicode="&#xcd;" horiz-adv-x="569" 
 />
    <glyph glyph-name="Icircumflex" unicode="&#xce;" horiz-adv-x="569" 
 />
    <glyph glyph-name="Idieresis" unicode="&#xcf;" horiz-adv-x="569" 
 />
    <glyph glyph-name="Igrave" unicode="&#xcc;" horiz-adv-x="569" 
 />
    <glyph glyph-name="Oacute" unicode="&#xd3;" horiz-adv-x="1593" 
 />
    <glyph glyph-name="Ocircumflex" unicode="&#xd4;" horiz-adv-x="1593" 
 />
    <glyph glyph-name="Ograve" unicode="&#xd2;" horiz-adv-x="1593" 
 />
    <glyph glyph-name="Uacute" unicode="&#xda;" horiz-adv-x="1479" 
 />
    <glyph glyph-name="Ucircumflex" unicode="&#xdb;" horiz-adv-x="1479" 
 />
    <glyph glyph-name="Ugrave" unicode="&#xd9;" horiz-adv-x="1479" 
 />
    <glyph glyph-name="dotlessi" unicode="&#x131;" horiz-adv-x="808" 
d="M375 1206q82 0 82 -131q0 -396 28 -654l-15 -14v-15l15 -58h-15q32 -34 70 -320l-14 -14h-69q-97 0 -97 188q-31 0 -68 364l13 88q-33 362 -55 362l14 73v88z" />
    <glyph glyph-name="circumflex" unicode="&#x2c6;" horiz-adv-x="682" 
 />
    <glyph glyph-name="tilde" unicode="&#x2dc;" horiz-adv-x="682" 
 />
    <glyph glyph-name="uni02C9" unicode="&#x2c9;" horiz-adv-x="682" 
 />
    <glyph glyph-name="breve" unicode="&#x2d8;" horiz-adv-x="682" 
 />
    <glyph glyph-name="dotaccent" unicode="&#x2d9;" horiz-adv-x="682" 
 />
    <glyph glyph-name="ring" unicode="&#x2da;" horiz-adv-x="682" 
 />
    <glyph glyph-name="cedilla" unicode="&#xb8;" horiz-adv-x="682" 
 />
    <glyph glyph-name="hungarumlaut" unicode="&#x2dd;" horiz-adv-x="1040" 
d="M410 1622q19 -76 19 -249q0 -186 -21.5 -330.5t-99.5 -164.5q-46 11 -66 42t-29 94q0 40 15.5 169t15.5 216q0 61 -10 158q0 63 25 95.5t62 32.5q75 0 89 -63zM822 1631q22 -105 22 -315q0 -146 -12.5 -265t-33.5 -141q-17 -24 -64 -37q-52 14 -67.5 49t-26.5 123
q0 43 8.5 156t8.5 185q0 76 -11 187q0 121 88 121q73 0 88 -63z" />
    <glyph glyph-name="ogonek" unicode="&#x2db;" horiz-adv-x="682" 
 />
    <glyph glyph-name="caron" unicode="&#x2c7;" horiz-adv-x="682" 
 />
    <glyph glyph-name="Lslash" unicode="&#x141;" 
 />
    <glyph glyph-name="lslash" unicode="&#x142;" horiz-adv-x="455" 
 />
    <glyph glyph-name="Scaron" unicode="&#x160;" horiz-adv-x="1366" 
 />
    <glyph glyph-name="scaron" unicode="&#x161;" horiz-adv-x="1024" 
 />
    <glyph glyph-name="Zcaron" unicode="&#x17d;" horiz-adv-x="1251" 
 />
    <glyph glyph-name="zcaron" unicode="&#x17e;" horiz-adv-x="1024" 
 />
    <glyph glyph-name="brokenbar" unicode="&#xa6;" horiz-adv-x="532" 
 />
    <glyph glyph-name="Eth" unicode="&#xd0;" horiz-adv-x="1479" 
 />
    <glyph glyph-name="eth" unicode="&#xf0;" 
 />
    <glyph glyph-name="Yacute" unicode="&#xdd;" horiz-adv-x="1366" 
 />
    <glyph glyph-name="yacute" unicode="&#xfd;" horiz-adv-x="1024" 
 />
    <glyph glyph-name="Thorn" unicode="&#xde;" horiz-adv-x="1366" 
 />
    <glyph glyph-name="thorn" unicode="&#xfe;" 
 />
    <glyph glyph-name="minus" unicode="&#x2212;" horiz-adv-x="1196" 
 />
    <glyph glyph-name="multiply" unicode="&#xd7;" horiz-adv-x="1196" 
 />
    <glyph glyph-name="uni00B9" unicode="&#xb9;" horiz-adv-x="682" 
 />
    <glyph glyph-name="uni00B2" unicode="&#xb2;" horiz-adv-x="682" 
 />
    <glyph glyph-name="uni00B3" unicode="&#xb3;" horiz-adv-x="682" 
 />
    <glyph glyph-name="onehalf" unicode="&#xbd;" horiz-adv-x="1708" 
 />
    <glyph glyph-name="onequarter" unicode="&#xbc;" horiz-adv-x="1708" 
 />
    <glyph glyph-name="threequarters" unicode="&#xbe;" horiz-adv-x="1708" 
 />
    <glyph glyph-name="franc" unicode="&#x20a3;" 
 />
    <glyph glyph-name="Gbreve" unicode="&#x11e;" horiz-adv-x="1593" 
d="M965 1737h24q25 0 25 -33h161l25 -22q0 -24 -136 -43v-11l-13 11h-25l-123 -33l-74 11l-198 -33l-124 11q0 -40 -210 -66q-27 0 -37 121q9 54 62 54v11l123 -11zM816 1398h74q322 -53 322 -207q0 -41 -37 -88q-35 0 -111 110q-104 76 -223 76q-237 0 -408 -371l-49 -394
q41 -253 123 -327q138 -66 210 -66h62q470 109 470 306q-50 76 -210 76l-247 -21l-37 54q0 109 160 109q74 -10 74 -32q245 54 334 54l25 -22l-12 -54l49 -153l-62 -186q-317 -241 -568 -262h-99q-206 0 -359 273l-25 175l25 229l-12 55q26 239 210 470q26 0 111 109
q142 87 210 87z" />
    <glyph glyph-name="gbreve" unicode="&#x11f;" horiz-adv-x="1470" 
d="M857 1208h119q100 -89 100 -155l-9 -55v-9q0 -14 100 -64q119 -200 119 -374l-9 -36v-18l9 -10l-9 -27q0 -337 -183 -629q-174 -167 -346 -182l-28 -9v-10l-45 10h-155l-82 27v-9q-338 93 -338 201v9q61 73 237 73v-9q0 -15 -64 -46l-9 -46q106 -109 310 -109l10 9h9
l54 -18q463 0 548 537l9 46l-9 9v9l9 37q-22 520 -128 520h-36l-165 -228q-176 -210 -310 -210q-146 0 -146 155l-9 73v73q52 292 119 292h36l28 -19h27q68 131 237 192zM511 661q24 -82 45 -82h28q128 81 310 292q29 0 100 91v73q0 75 -82 91h-37q-217 0 -364 -465z
M684 579l9 -9v-10q29 0 137 128v18h-18q-109 -93 -128 -127zM995 1509h20q19 0 19 -27h128l19 -19q0 -20 -108 -36v-9l-10 9h-19l-97 -27l-60 9l-156 -28l-98 9q0 -32 -166 -54q-22 0 -29 100q6 46 49 46v9l97 -9z" />
    <glyph glyph-name="Idotaccent" unicode="&#x130;" horiz-adv-x="684" 
d="M374 1817q73 -65 73 -210l-28 -52l-118 27l-14 -14l-44 14l-73 117q93 118 204 118zM434 1497q28 -24 43 -283l-15 -54l30 -216l-15 -107h15l-15 -14l15 -365v-135l29 -202q0 -81 -131 -121q-84 0 -102 216l29 202h-15l15 14v553q0 137 -73 377q54 135 190 135z" />
    <glyph glyph-name="Scedilla" unicode="&#x15e;" horiz-adv-x="1366" 
d="M924 1726q127 0 215 -76q-16 -177 -63 -177h-25q-105 126 -203 126q-153 -83 -153 -165q0 -279 420 -964q18 -99 50 -140l-12 -12l12 -64v-13q0 -180 -406 -241q-203 0 -495 191q-114 128 -114 215v13q0 127 203 127h38l38 -38v-38l-126 -51v-25q182 -267 570 -267
q114 48 127 89v63q0 99 -267 571q-165 316 -165 444l14 52l-14 12q0 288 255 368h101zM508 -30h24q35 -32 235 -62l50 -24q0 -37 49 -37l13 -13v-12l-74 -50h-13q-86 0 -86 25l-248 -37l-74 49q20 161 124 161z" />
    <glyph glyph-name="scedilla" unicode="&#x15f;" horiz-adv-x="1257" 
d="M745 1207l11 -11l132 11h55q52 0 154 -77v-22q-33 -55 -77 -55q-109 66 -264 66q-143 -52 -143 -99q0 -165 242 -440q66 -123 66 -176v-66q0 -214 -396 -341l-11 -33l11 -11q-17 -253 -55 -253h-11q-106 363 -187 363q-132 128 -132 176v22q13 32 99 77q21 0 187 -187
q42 -33 99 -33h99q99 0 187 143v77q0 111 -253 418q0 52 -44 77l-33 121q0 176 264 253z" />
    <glyph glyph-name="Cacute" unicode="&#x106;" horiz-adv-x="1479" 
 />
    <glyph glyph-name="cacute" unicode="&#x107;" horiz-adv-x="1024" 
 />
    <glyph glyph-name="Ccaron" unicode="&#x10c;" horiz-adv-x="1479" 
 />
    <glyph glyph-name="ccaron" unicode="&#x10d;" horiz-adv-x="1024" 
 />
    <glyph glyph-name="dcroat" unicode="&#x111;" 
 />
    <glyph glyph-name="currency" unicode="&#xa4;" 
 />
    <glyph glyph-name="macron" unicode="&#xaf;" horiz-adv-x="1131" 
 />
    <glyph glyph-name="Amacron" unicode="&#x100;" horiz-adv-x="1366" 
 />
    <glyph glyph-name="amacron" unicode="&#x101;" 
 />
    <glyph glyph-name="Abreve" unicode="&#x102;" horiz-adv-x="1366" 
 />
    <glyph glyph-name="abreve" unicode="&#x103;" 
 />
    <glyph glyph-name="Aogonek" unicode="&#x104;" horiz-adv-x="1366" 
 />
    <glyph glyph-name="aogonek" unicode="&#x105;" 
 />
    <glyph glyph-name="Ccircumflex" unicode="&#x108;" horiz-adv-x="1479" 
 />
    <glyph glyph-name="ccircumflex" unicode="&#x109;" horiz-adv-x="1024" 
 />
    <glyph glyph-name="Cdotaccent" unicode="&#x10a;" horiz-adv-x="1479" 
 />
    <glyph glyph-name="cdotaccent" unicode="&#x10b;" horiz-adv-x="1024" 
 />
    <glyph glyph-name="Dcaron" unicode="&#x10e;" horiz-adv-x="1479" 
 />
    <glyph glyph-name="dcaron" unicode="&#x10f;" horiz-adv-x="1259" 
 />
    <glyph glyph-name="Dcroat" unicode="&#x110;" horiz-adv-x="1479" 
 />
    <glyph glyph-name="Emacron" unicode="&#x112;" horiz-adv-x="1366" 
 />
    <glyph glyph-name="emacron" unicode="&#x113;" 
 />
    <glyph glyph-name="Ebreve" unicode="&#x114;" horiz-adv-x="1366" 
 />
    <glyph glyph-name="ebreve" unicode="&#x115;" 
 />
    <glyph glyph-name="Edotaccent" unicode="&#x116;" horiz-adv-x="1366" 
 />
    <glyph glyph-name="edotaccent" unicode="&#x117;" 
 />
    <glyph glyph-name="Eogonek" unicode="&#x118;" horiz-adv-x="1366" 
 />
    <glyph glyph-name="eogonek" unicode="&#x119;" 
 />
    <glyph glyph-name="Ecaron" unicode="&#x11a;" horiz-adv-x="1366" 
 />
    <glyph glyph-name="ecaron" unicode="&#x11b;" 
 />
    <glyph glyph-name="Gcircumflex" unicode="&#x11c;" horiz-adv-x="1593" 
 />
    <glyph glyph-name="gcircumflex" unicode="&#x11d;" 
 />
    <glyph glyph-name="Gdotaccent" unicode="&#x120;" horiz-adv-x="1593" 
 />
    <glyph glyph-name="gdotaccent" unicode="&#x121;" 
 />
    <glyph glyph-name="Gcommaaccent" unicode="&#x122;" horiz-adv-x="1593" 
 />
    <glyph glyph-name="gcommaaccent" unicode="&#x123;" 
 />
    <glyph glyph-name="Hcircumflex" unicode="&#x124;" horiz-adv-x="1479" 
 />
    <glyph glyph-name="hcircumflex" unicode="&#x125;" 
 />
    <glyph glyph-name="Hbar" unicode="&#x126;" horiz-adv-x="1479" 
 />
    <glyph glyph-name="hbar" unicode="&#x127;" 
 />
    <glyph glyph-name="Itilde" unicode="&#x128;" horiz-adv-x="569" 
 />
    <glyph glyph-name="itilde" unicode="&#x129;" horiz-adv-x="569" 
 />
    <glyph glyph-name="Imacron" unicode="&#x12a;" horiz-adv-x="569" 
 />
    <glyph glyph-name="imacron" unicode="&#x12b;" horiz-adv-x="569" 
 />
    <glyph glyph-name="Ibreve" unicode="&#x12c;" horiz-adv-x="569" 
 />
    <glyph glyph-name="ibreve" unicode="&#x12d;" horiz-adv-x="569" 
 />
    <glyph glyph-name="Iogonek" unicode="&#x12e;" horiz-adv-x="569" 
 />
    <glyph glyph-name="iogonek" unicode="&#x12f;" horiz-adv-x="455" 
 />
    <glyph glyph-name="IJ" unicode="&#x132;" horiz-adv-x="1505" 
 />
    <glyph glyph-name="ij" unicode="&#x133;" horiz-adv-x="909" 
 />
    <glyph glyph-name="Jcircumflex" unicode="&#x134;" horiz-adv-x="1024" 
 />
    <glyph glyph-name="jcircumflex" unicode="&#x135;" horiz-adv-x="455" 
 />
    <glyph glyph-name="Kcommaaccent" unicode="&#x136;" horiz-adv-x="1366" 
 />
    <glyph glyph-name="kcommaaccent" unicode="&#x137;" horiz-adv-x="1024" 
 />
    <glyph glyph-name="kgreenlandic" unicode="&#x138;" horiz-adv-x="1024" 
 />
    <glyph glyph-name="Lacute" unicode="&#x139;" 
 />
    <glyph glyph-name="lacute" unicode="&#x13a;" horiz-adv-x="455" 
 />
    <glyph glyph-name="Lcommaaccent" unicode="&#x13b;" 
 />
    <glyph glyph-name="lcommaaccent" unicode="&#x13c;" horiz-adv-x="455" 
 />
    <glyph glyph-name="Lcaron" unicode="&#x13d;" 
 />
    <glyph glyph-name="lcaron" unicode="&#x13e;" horiz-adv-x="597" 
 />
    <glyph glyph-name="Ldot" unicode="&#x13f;" 
 />
    <glyph glyph-name="ldot" unicode="&#x140;" horiz-adv-x="684" 
 />
    <glyph glyph-name="Nacute" unicode="&#x143;" horiz-adv-x="1479" 
 />
    <glyph glyph-name="nacute" unicode="&#x144;" 
 />
    <glyph glyph-name="Ncommaaccent" unicode="&#x145;" horiz-adv-x="1479" 
 />
    <glyph glyph-name="ncommaaccent" unicode="&#x146;" 
 />
    <glyph glyph-name="Ncaron" unicode="&#x147;" horiz-adv-x="1479" 
 />
    <glyph glyph-name="ncaron" unicode="&#x148;" 
 />
    <glyph glyph-name="napostrophe" unicode="&#x149;" horiz-adv-x="1237" 
 />
    <glyph glyph-name="Eng" unicode="&#x14a;" horiz-adv-x="1481" 
 />
    <glyph glyph-name="eng" unicode="&#x14b;" 
 />
    <glyph glyph-name="Omacron" unicode="&#x14c;" horiz-adv-x="1593" 
 />
    <glyph glyph-name="omacron" unicode="&#x14d;" 
 />
    <glyph glyph-name="Obreve" unicode="&#x14e;" horiz-adv-x="1593" 
 />
    <glyph glyph-name="obreve" unicode="&#x14f;" 
 />
    <glyph glyph-name="Ohungarumlaut" unicode="&#x150;" horiz-adv-x="1593" 
 />
    <glyph glyph-name="ohungarumlaut" unicode="&#x151;" 
 />
    <glyph glyph-name="Racute" unicode="&#x154;" horiz-adv-x="1479" 
 />
    <glyph glyph-name="racute" unicode="&#x155;" horiz-adv-x="682" 
 />
    <glyph glyph-name="Rcommaaccent" unicode="&#x156;" horiz-adv-x="1479" 
 />
    <glyph glyph-name="rcommaaccent" unicode="&#x157;" horiz-adv-x="682" 
 />
    <glyph glyph-name="Rcaron" unicode="&#x158;" horiz-adv-x="1479" 
 />
    <glyph glyph-name="rcaron" unicode="&#x159;" horiz-adv-x="682" 
 />
    <glyph glyph-name="Sacute" unicode="&#x15a;" horiz-adv-x="1366" 
 />
    <glyph glyph-name="sacute" unicode="&#x15b;" horiz-adv-x="1024" 
 />
    <glyph glyph-name="Scircumflex" unicode="&#x15c;" horiz-adv-x="1366" 
 />
    <glyph glyph-name="scircumflex" unicode="&#x15d;" horiz-adv-x="1024" 
 />
    <glyph glyph-name="Tcommaaccent" unicode="&#x162;" horiz-adv-x="1251" 
 />
    <glyph glyph-name="tcommaaccent" unicode="&#x163;" horiz-adv-x="569" 
 />
    <glyph glyph-name="Tcaron" unicode="&#x164;" horiz-adv-x="1251" 
 />
    <glyph glyph-name="tcaron" unicode="&#x165;" horiz-adv-x="768" 
 />
    <glyph glyph-name="Tbar" unicode="&#x166;" horiz-adv-x="1251" 
 />
    <glyph glyph-name="tbar" unicode="&#x167;" horiz-adv-x="569" 
 />
    <glyph glyph-name="Utilde" unicode="&#x168;" horiz-adv-x="1479" 
 />
    <glyph glyph-name="utilde" unicode="&#x169;" 
 />
    <glyph glyph-name="Umacron" unicode="&#x16a;" horiz-adv-x="1479" 
 />
    <glyph glyph-name="umacron" unicode="&#x16b;" 
 />
    <glyph glyph-name="Ubreve" unicode="&#x16c;" horiz-adv-x="1479" 
 />
    <glyph glyph-name="ubreve" unicode="&#x16d;" 
 />
    <glyph glyph-name="Uring" unicode="&#x16e;" horiz-adv-x="1479" 
 />
    <glyph glyph-name="uring" unicode="&#x16f;" 
 />
    <glyph glyph-name="Uhungarumlaut" unicode="&#x170;" horiz-adv-x="1479" 
 />
    <glyph glyph-name="uhungarumlaut" unicode="&#x171;" 
 />
    <glyph glyph-name="Uogonek" unicode="&#x172;" horiz-adv-x="1479" 
 />
    <glyph glyph-name="uogonek" unicode="&#x173;" 
 />
    <glyph glyph-name="Wcircumflex" unicode="&#x174;" horiz-adv-x="1933" 
 />
    <glyph glyph-name="wcircumflex" unicode="&#x175;" horiz-adv-x="1479" 
 />
    <glyph glyph-name="Ycircumflex" unicode="&#x176;" horiz-adv-x="1366" 
 />
    <glyph glyph-name="ycircumflex" unicode="&#x177;" horiz-adv-x="1024" 
 />
    <glyph glyph-name="Zacute" unicode="&#x179;" horiz-adv-x="1251" 
 />
    <glyph glyph-name="zacute" unicode="&#x17a;" horiz-adv-x="1024" 
 />
    <glyph glyph-name="Zdotaccent" unicode="&#x17b;" horiz-adv-x="1251" 
 />
    <glyph glyph-name="zdotaccent" unicode="&#x17c;" horiz-adv-x="1024" 
 />
    <glyph glyph-name="longs" unicode="&#x17f;" horiz-adv-x="455" 
 />
    <glyph glyph-name="Aringacute" unicode="&#x1fa;" horiz-adv-x="1366" 
 />
    <glyph glyph-name="aringacute" unicode="&#x1fb;" 
 />
    <glyph glyph-name="AEacute" unicode="&#x1fc;" horiz-adv-x="2048" 
 />
    <glyph glyph-name="aeacute" unicode="&#x1fd;" horiz-adv-x="1821" 
 />
    <glyph glyph-name="Oslashacute" unicode="&#x1fe;" horiz-adv-x="1593" 
 />
    <glyph glyph-name="oslashacute" unicode="&#x1ff;" horiz-adv-x="1251" 
 />
    <glyph glyph-name="tonos" unicode="&#x384;" horiz-adv-x="682" 
 />
    <glyph glyph-name="dieresistonos" unicode="&#x385;" horiz-adv-x="682" 
 />
    <glyph glyph-name="Alphatonos" unicode="&#x386;" horiz-adv-x="1367" 
 />
    <glyph glyph-name="anoteleia" unicode="&#x387;" horiz-adv-x="569" 
 />
    <glyph glyph-name="Epsilontonos" unicode="&#x388;" horiz-adv-x="1606" 
 />
    <glyph glyph-name="Etatonos" unicode="&#x389;" horiz-adv-x="1716" 
 />
    <glyph glyph-name="Iotatonos" unicode="&#x38a;" horiz-adv-x="786" 
 />
    <glyph glyph-name="Omicrontonos" unicode="&#x38c;" horiz-adv-x="1586" 
 />
    <glyph glyph-name="Upsilontonos" unicode="&#x38e;" horiz-adv-x="1752" 
 />
    <glyph glyph-name="Omegatonos" unicode="&#x38f;" horiz-adv-x="1541" 
 />
    <glyph glyph-name="iotadieresistonos" unicode="&#x390;" horiz-adv-x="455" 
 />
    <glyph glyph-name="Alpha" unicode="&#x391;" horiz-adv-x="1366" 
 />
    <glyph glyph-name="Beta" unicode="&#x392;" horiz-adv-x="1366" 
 />
    <glyph glyph-name="Gamma" unicode="&#x393;" horiz-adv-x="1128" 
 />
    <glyph glyph-name="uni0394" unicode="&#x394;" horiz-adv-x="1368" 
 />
    <glyph glyph-name="Epsilon" unicode="&#x395;" horiz-adv-x="1366" 
 />
    <glyph glyph-name="Zeta" unicode="&#x396;" horiz-adv-x="1251" 
 />
    <glyph glyph-name="Eta" unicode="&#x397;" horiz-adv-x="1479" 
 />
    <glyph glyph-name="Theta" unicode="&#x398;" horiz-adv-x="1593" 
 />
    <glyph glyph-name="Iota" unicode="&#x399;" horiz-adv-x="569" 
 />
    <glyph glyph-name="Kappa" unicode="&#x39a;" horiz-adv-x="1366" 
 />
    <glyph glyph-name="Lambda" unicode="&#x39b;" horiz-adv-x="1368" 
 />
    <glyph glyph-name="Mu" unicode="&#x39c;" horiz-adv-x="1706" 
 />
    <glyph glyph-name="Nu" unicode="&#x39d;" horiz-adv-x="1479" 
 />
    <glyph glyph-name="Xi" unicode="&#x39e;" horiz-adv-x="1331" 
 />
    <glyph glyph-name="Omicron" unicode="&#x39f;" horiz-adv-x="1593" 
 />
    <glyph glyph-name="Pi" unicode="&#x3a0;" horiz-adv-x="1479" 
 />
    <glyph glyph-name="Rho" unicode="&#x3a1;" horiz-adv-x="1366" 
 />
    <glyph glyph-name="Sigma" unicode="&#x3a3;" horiz-adv-x="1266" 
 />
    <glyph glyph-name="Tau" unicode="&#x3a4;" horiz-adv-x="1251" 
 />
    <glyph glyph-name="Upsilon" unicode="&#x3a5;" horiz-adv-x="1366" 
 />
    <glyph glyph-name="Phi" unicode="&#x3a6;" horiz-adv-x="1634" 
 />
    <glyph glyph-name="Chi" unicode="&#x3a7;" horiz-adv-x="1366" 
 />
    <glyph glyph-name="Psi" unicode="&#x3a8;" horiz-adv-x="1711" 
 />
    <glyph glyph-name="uni03A9" unicode="&#x3a9;" horiz-adv-x="1531" 
 />
    <glyph glyph-name="Iotadieresis" unicode="&#x3aa;" horiz-adv-x="569" 
 />
    <glyph glyph-name="Upsilondieresis" unicode="&#x3ab;" horiz-adv-x="1366" 
 />
    <glyph glyph-name="alphatonos" unicode="&#x3ac;" horiz-adv-x="1184" 
 />
    <glyph glyph-name="epsilontonos" unicode="&#x3ad;" horiz-adv-x="913" 
 />
    <glyph glyph-name="etatonos" unicode="&#x3ae;" 
 />
    <glyph glyph-name="iotatonos" unicode="&#x3af;" horiz-adv-x="455" 
 />
    <glyph glyph-name="upsilondieresistonos" unicode="&#x3b0;" horiz-adv-x="1120" 
 />
    <glyph glyph-name="alpha" unicode="&#x3b1;" horiz-adv-x="1184" 
 />
    <glyph glyph-name="beta" unicode="&#x3b2;" horiz-adv-x="1178" 
 />
    <glyph glyph-name="gamma" unicode="&#x3b3;" horiz-adv-x="1024" 
 />
    <glyph glyph-name="delta" unicode="&#x3b4;" horiz-adv-x="1140" 
 />
    <glyph glyph-name="epsilon" unicode="&#x3b5;" horiz-adv-x="913" 
 />
    <glyph glyph-name="zeta" unicode="&#x3b6;" horiz-adv-x="903" 
 />
    <glyph glyph-name="eta" unicode="&#x3b7;" 
 />
    <glyph glyph-name="theta" unicode="&#x3b8;" 
 />
    <glyph glyph-name="iota" unicode="&#x3b9;" horiz-adv-x="455" 
 />
    <glyph glyph-name="kappa" unicode="&#x3ba;" horiz-adv-x="1024" 
 />
    <glyph glyph-name="lambda" unicode="&#x3bb;" horiz-adv-x="1024" 
 />
    <glyph glyph-name="uni03BC" unicode="&#x3bc;" horiz-adv-x="1180" 
 />
    <glyph glyph-name="nu" unicode="&#x3bd;" horiz-adv-x="1024" 
 />
    <glyph glyph-name="xi" unicode="&#x3be;" horiz-adv-x="917" 
 />
    <glyph glyph-name="omicron" unicode="&#x3bf;" 
 />
    <glyph glyph-name="pi" unicode="&#x3c0;" horiz-adv-x="1413" 
 />
    <glyph glyph-name="rho" unicode="&#x3c1;" horiz-adv-x="1165" 
 />
    <glyph glyph-name="sigma1" unicode="&#x3c2;" horiz-adv-x="987" 
 />
    <glyph glyph-name="sigma" unicode="&#x3c3;" horiz-adv-x="1264" 
 />
    <glyph glyph-name="tau" unicode="&#x3c4;" horiz-adv-x="809" 
 />
    <glyph glyph-name="upsilon" unicode="&#x3c5;" horiz-adv-x="1120" 
 />
    <glyph glyph-name="phi" unicode="&#x3c6;" horiz-adv-x="1328" 
 />
    <glyph glyph-name="chi" unicode="&#x3c7;" horiz-adv-x="1075" 
 />
    <glyph glyph-name="psi" unicode="&#x3c8;" horiz-adv-x="1460" 
 />
    <glyph glyph-name="omega" unicode="&#x3c9;" horiz-adv-x="1599" 
 />
    <glyph glyph-name="iotadieresis" unicode="&#x3ca;" horiz-adv-x="455" 
 />
    <glyph glyph-name="upsilondieresis" unicode="&#x3cb;" horiz-adv-x="1120" 
 />
    <glyph glyph-name="omicrontonos" unicode="&#x3cc;" 
 />
    <glyph glyph-name="upsilontonos" unicode="&#x3cd;" horiz-adv-x="1120" 
 />
    <glyph glyph-name="omegatonos" unicode="&#x3ce;" horiz-adv-x="1599" 
 />
    <glyph glyph-name="afii10023" unicode="&#x401;" horiz-adv-x="1367" 
 />
    <glyph glyph-name="afii10051" unicode="&#x402;" horiz-adv-x="1771" 
 />
    <glyph glyph-name="afii10052" unicode="&#x403;" horiz-adv-x="1109" 
 />
    <glyph glyph-name="afii10053" unicode="&#x404;" horiz-adv-x="1472" 
 />
    <glyph glyph-name="afii10054" unicode="&#x405;" horiz-adv-x="1366" 
 />
    <glyph glyph-name="afii10055" unicode="&#x406;" horiz-adv-x="569" 
 />
    <glyph glyph-name="afii10056" unicode="&#x407;" horiz-adv-x="569" 
 />
    <glyph glyph-name="afii10057" unicode="&#x408;" horiz-adv-x="1024" 
 />
    <glyph glyph-name="afii10058" unicode="&#x409;" horiz-adv-x="2165" 
 />
    <glyph glyph-name="afii10059" unicode="&#x40a;" horiz-adv-x="2069" 
 />
    <glyph glyph-name="afii10060" unicode="&#x40b;" horiz-adv-x="1749" 
 />
    <glyph glyph-name="afii10061" unicode="&#x40c;" horiz-adv-x="1193" 
 />
    <glyph glyph-name="afii10062" unicode="&#x40e;" horiz-adv-x="1301" 
 />
    <glyph glyph-name="afii10145" unicode="&#x40f;" horiz-adv-x="1472" 
 />
    <glyph glyph-name="afii10017" unicode="&#x410;" horiz-adv-x="1366" 
 />
    <glyph glyph-name="afii10018" unicode="&#x411;" horiz-adv-x="1344" 
 />
    <glyph glyph-name="afii10019" unicode="&#x412;" horiz-adv-x="1366" 
 />
    <glyph glyph-name="afii10020" unicode="&#x413;" horiz-adv-x="1109" 
 />
    <glyph glyph-name="afii10021" unicode="&#x414;" horiz-adv-x="1387" 
 />
    <glyph glyph-name="afii10022" unicode="&#x415;" horiz-adv-x="1366" 
 />
    <glyph glyph-name="afii10024" unicode="&#x416;" horiz-adv-x="1891" 
 />
    <glyph glyph-name="afii10025" unicode="&#x417;" horiz-adv-x="1237" 
 />
    <glyph glyph-name="afii10026" unicode="&#x418;" horiz-adv-x="1472" 
 />
    <glyph glyph-name="afii10027" unicode="&#x419;" horiz-adv-x="1472" 
 />
    <glyph glyph-name="afii10028" unicode="&#x41a;" horiz-adv-x="1193" 
 />
    <glyph glyph-name="afii10029" unicode="&#x41b;" horiz-adv-x="1344" 
 />
    <glyph glyph-name="afii10030" unicode="&#x41c;" horiz-adv-x="1706" 
 />
    <glyph glyph-name="afii10031" unicode="&#x41d;" horiz-adv-x="1479" 
 />
    <glyph glyph-name="afii10032" unicode="&#x41e;" horiz-adv-x="1593" 
 />
    <glyph glyph-name="afii10033" unicode="&#x41f;" horiz-adv-x="1472" 
 />
    <glyph glyph-name="afii10034" unicode="&#x420;" horiz-adv-x="1366" 
 />
    <glyph glyph-name="afii10035" unicode="&#x421;" horiz-adv-x="1479" 
 />
    <glyph glyph-name="afii10036" unicode="&#x422;" horiz-adv-x="1251" 
 />
    <glyph glyph-name="afii10037" unicode="&#x423;" horiz-adv-x="1301" 
 />
    <glyph glyph-name="afii10038" unicode="&#x424;" horiz-adv-x="1557" 
 />
    <glyph glyph-name="afii10039" unicode="&#x425;" horiz-adv-x="1366" 
 />
    <glyph glyph-name="afii10040" unicode="&#x426;" horiz-adv-x="1515" 
 />
    <glyph glyph-name="afii10041" unicode="&#x427;" horiz-adv-x="1365" 
 />
    <glyph glyph-name="afii10042" unicode="&#x428;" horiz-adv-x="1877" 
 />
    <glyph glyph-name="afii10043" unicode="&#x429;" horiz-adv-x="1920" 
 />
    <glyph glyph-name="afii10044" unicode="&#x42a;" horiz-adv-x="1621" 
 />
    <glyph glyph-name="afii10045" unicode="&#x42b;" horiz-adv-x="1813" 
 />
    <glyph glyph-name="afii10046" unicode="&#x42c;" horiz-adv-x="1344" 
 />
    <glyph glyph-name="afii10047" unicode="&#x42d;" horiz-adv-x="1472" 
 />
    <glyph glyph-name="afii10048" unicode="&#x42e;" horiz-adv-x="2069" 
 />
    <glyph glyph-name="afii10049" unicode="&#x42f;" horiz-adv-x="1479" 
 />
    <glyph glyph-name="afii10065" unicode="&#x430;" 
 />
    <glyph glyph-name="afii10066" unicode="&#x431;" horiz-adv-x="1173" 
 />
    <glyph glyph-name="afii10067" unicode="&#x432;" horiz-adv-x="1088" 
 />
    <glyph glyph-name="afii10068" unicode="&#x433;" horiz-adv-x="747" 
 />
    <glyph glyph-name="afii10069" unicode="&#x434;" horiz-adv-x="1195" 
 />
    <glyph glyph-name="afii10070" unicode="&#x435;" 
 />
    <glyph glyph-name="afii10072" unicode="&#x436;" horiz-adv-x="1370" 
 />
    <glyph glyph-name="afii10073" unicode="&#x437;" horiz-adv-x="939" 
 />
    <glyph glyph-name="afii10074" unicode="&#x438;" horiz-adv-x="1144" 
 />
    <glyph glyph-name="afii10075" unicode="&#x439;" horiz-adv-x="1144" 
 />
    <glyph glyph-name="afii10076" unicode="&#x43a;" horiz-adv-x="896" 
 />
    <glyph glyph-name="afii10077" unicode="&#x43b;" horiz-adv-x="1195" 
 />
    <glyph glyph-name="afii10078" unicode="&#x43c;" horiz-adv-x="1408" 
 />
    <glyph glyph-name="afii10079" unicode="&#x43d;" horiz-adv-x="1131" 
 />
    <glyph glyph-name="afii10080" unicode="&#x43e;" 
 />
    <glyph glyph-name="afii10081" unicode="&#x43f;" horiz-adv-x="1109" 
 />
    <glyph glyph-name="afii10082" unicode="&#x440;" 
 />
    <glyph glyph-name="afii10083" unicode="&#x441;" horiz-adv-x="1024" 
 />
    <glyph glyph-name="afii10084" unicode="&#x442;" horiz-adv-x="938" 
 />
    <glyph glyph-name="afii10085" unicode="&#x443;" horiz-adv-x="1024" 
 />
    <glyph glyph-name="afii10086" unicode="&#x444;" horiz-adv-x="1685" 
 />
    <glyph glyph-name="afii10087" unicode="&#x445;" horiz-adv-x="1024" 
 />
    <glyph glyph-name="afii10088" unicode="&#x446;" horiz-adv-x="1173" 
 />
    <glyph glyph-name="afii10089" unicode="&#x447;" horiz-adv-x="1067" 
 />
    <glyph glyph-name="afii10090" unicode="&#x448;" horiz-adv-x="1643" 
 />
    <glyph glyph-name="afii10091" unicode="&#x449;" horiz-adv-x="1685" 
 />
    <glyph glyph-name="afii10092" unicode="&#x44a;" horiz-adv-x="1280" 
 />
    <glyph glyph-name="afii10093" unicode="&#x44b;" horiz-adv-x="1472" 
 />
    <glyph glyph-name="afii10094" unicode="&#x44c;" horiz-adv-x="1067" 
 />
    <glyph glyph-name="afii10095" unicode="&#x44d;" horiz-adv-x="1045" 
 />
    <glyph glyph-name="afii10096" unicode="&#x44e;" horiz-adv-x="1536" 
 />
    <glyph glyph-name="afii10097" unicode="&#x44f;" horiz-adv-x="1109" 
 />
    <glyph glyph-name="afii10071" unicode="&#x451;" 
 />
    <glyph glyph-name="afii10099" unicode="&#x452;" 
 />
    <glyph glyph-name="afii10100" unicode="&#x453;" horiz-adv-x="747" 
 />
    <glyph glyph-name="afii10101" unicode="&#x454;" horiz-adv-x="1045" 
 />
    <glyph glyph-name="afii10102" unicode="&#x455;" horiz-adv-x="1024" 
 />
    <glyph glyph-name="afii10103" unicode="&#x456;" horiz-adv-x="455" 
 />
    <glyph glyph-name="afii10104" unicode="&#x457;" horiz-adv-x="569" 
 />
    <glyph glyph-name="afii10105" unicode="&#x458;" horiz-adv-x="455" 
 />
    <glyph glyph-name="afii10106" unicode="&#x459;" horiz-adv-x="1856" 
 />
    <glyph glyph-name="afii10107" unicode="&#x45a;" horiz-adv-x="1664" 
 />
    <glyph glyph-name="afii10108" unicode="&#x45b;" 
 />
    <glyph glyph-name="afii10109" unicode="&#x45c;" horiz-adv-x="896" 
 />
    <glyph glyph-name="afii10110" unicode="&#x45e;" horiz-adv-x="1024" 
 />
    <glyph glyph-name="afii10193" unicode="&#x45f;" horiz-adv-x="1131" 
 />
    <glyph glyph-name="afii10050" unicode="&#x490;" horiz-adv-x="1001" 
 />
    <glyph glyph-name="afii10098" unicode="&#x491;" horiz-adv-x="842" 
 />
    <glyph glyph-name="Wgrave" unicode="&#x1e80;" horiz-adv-x="1933" 
 />
    <glyph glyph-name="wgrave" unicode="&#x1e81;" horiz-adv-x="1479" 
 />
    <glyph glyph-name="Wacute" unicode="&#x1e82;" horiz-adv-x="1933" 
 />
    <glyph glyph-name="wacute" unicode="&#x1e83;" horiz-adv-x="1479" 
 />
    <glyph glyph-name="Wdieresis" unicode="&#x1e84;" horiz-adv-x="1933" 
 />
    <glyph glyph-name="wdieresis" unicode="&#x1e85;" horiz-adv-x="1479" 
 />
    <glyph glyph-name="Ygrave" unicode="&#x1ef2;" horiz-adv-x="1366" 
 />
    <glyph glyph-name="ygrave" unicode="&#x1ef3;" horiz-adv-x="1024" 
 />
    <glyph glyph-name="afii00208" unicode="&#x2015;" horiz-adv-x="2048" 
 />
    <glyph glyph-name="underscoredbl" unicode="&#x2017;" horiz-adv-x="1131" 
 />
    <glyph glyph-name="quotereversed" unicode="&#x201b;" horiz-adv-x="455" 
 />
    <glyph glyph-name="minute" unicode="&#x2032;" horiz-adv-x="384" 
 />
    <glyph glyph-name="second" unicode="&#x2033;" horiz-adv-x="1013" 
d="M385 1642q19 -76 19 -249q0 -186 -21.5 -330.5t-99.5 -164.5q-46 11 -66 42t-29 94q0 40 15.5 169t15.5 216q0 61 -10 158q0 63 25 95.5t62 32.5q75 0 89 -63zM797 1651q22 -105 22 -315q0 -146 -12.5 -265t-33.5 -141q-17 -24 -64 -37q-52 14 -67.5 49t-26.5 123
q0 43 8.5 156t8.5 185q0 76 -11 187q0 121 88 121q73 0 88 -63z" />
    <glyph glyph-name="exclamdbl" unicode="&#x203c;" horiz-adv-x="1024" 
 />
    <glyph glyph-name="uni203E" unicode="&#x203e;" horiz-adv-x="682" 
 />
    <glyph glyph-name="uni207F" unicode="&#x207f;" horiz-adv-x="747" 
 />
    <glyph glyph-name="lira" unicode="&#x20a4;" 
 />
    <glyph glyph-name="peseta" unicode="&#x20a7;" horiz-adv-x="2240" 
 />
    <glyph glyph-name="afii61248" unicode="&#x2105;" horiz-adv-x="1813" 
 />
    <glyph glyph-name="afii61289" unicode="&#x2113;" horiz-adv-x="662" 
 />
    <glyph glyph-name="afii61352" unicode="&#x2116;" horiz-adv-x="2197" 
 />
    <glyph glyph-name="estimated" unicode="&#x212e;" horiz-adv-x="1229" 
 />
    <glyph glyph-name="oneeighth" unicode="&#x215b;" horiz-adv-x="1708" 
 />
    <glyph glyph-name="threeeighths" unicode="&#x215c;" horiz-adv-x="1708" 
 />
    <glyph glyph-name="fiveeighths" unicode="&#x215d;" horiz-adv-x="1708" 
 />
    <glyph glyph-name="seveneighths" unicode="&#x215e;" horiz-adv-x="1708" 
 />
    <glyph glyph-name="arrowleft" unicode="&#x2190;" horiz-adv-x="2048" 
 />
    <glyph glyph-name="arrowup" unicode="&#x2191;" horiz-adv-x="1024" 
 />
    <glyph glyph-name="arrowright" unicode="&#x2192;" horiz-adv-x="2048" 
 />
    <glyph glyph-name="arrowdown" unicode="&#x2193;" horiz-adv-x="1024" 
 />
    <glyph glyph-name="arrowboth" unicode="&#x2194;" horiz-adv-x="2048" 
 />
    <glyph glyph-name="arrowupdn" unicode="&#x2195;" horiz-adv-x="1024" 
 />
    <glyph glyph-name="arrowupdnbse" unicode="&#x21a8;" horiz-adv-x="1024" 
 />
    <glyph glyph-name="orthogonal" unicode="&#x221f;" horiz-adv-x="2005" 
 />
    <glyph glyph-name="intersection" unicode="&#x2229;" horiz-adv-x="1472" 
 />
    <glyph glyph-name="equivalence" unicode="&#x2261;" horiz-adv-x="1195" 
 />
    <glyph glyph-name="house" unicode="&#x2302;" horiz-adv-x="1237" 
 />
    <glyph glyph-name="revlogicalnot" unicode="&#x2310;" horiz-adv-x="1196" 
 />
    <glyph glyph-name="integraltp" unicode="&#x2320;" horiz-adv-x="1237" 
 />
    <glyph glyph-name="integralbt" unicode="&#x2321;" horiz-adv-x="1237" 
 />
    <glyph glyph-name="SF100000" unicode="&#x2500;" horiz-adv-x="1451" 
 />
    <glyph glyph-name="SF110000" unicode="&#x2502;" horiz-adv-x="1280" 
 />
    <glyph glyph-name="SF010000" unicode="&#x250c;" horiz-adv-x="1451" 
 />
    <glyph glyph-name="SF030000" unicode="&#x2510;" horiz-adv-x="1451" 
 />
    <glyph glyph-name="SF020000" unicode="&#x2514;" horiz-adv-x="1451" 
 />
    <glyph glyph-name="SF040000" unicode="&#x2518;" horiz-adv-x="1451" 
 />
    <glyph glyph-name="SF080000" unicode="&#x251c;" horiz-adv-x="1451" 
 />
    <glyph glyph-name="SF090000" unicode="&#x2524;" horiz-adv-x="1451" 
 />
    <glyph glyph-name="SF060000" unicode="&#x252c;" horiz-adv-x="1451" 
 />
    <glyph glyph-name="SF070000" unicode="&#x2534;" horiz-adv-x="1451" 
 />
    <glyph glyph-name="SF050000" unicode="&#x253c;" horiz-adv-x="1451" 
 />
    <glyph glyph-name="SF430000" unicode="&#x2550;" horiz-adv-x="1451" 
 />
    <glyph glyph-name="SF240000" unicode="&#x2551;" horiz-adv-x="1451" 
 />
    <glyph glyph-name="SF510000" unicode="&#x2552;" horiz-adv-x="1451" 
 />
    <glyph glyph-name="SF520000" unicode="&#x2553;" horiz-adv-x="1451" 
 />
    <glyph glyph-name="SF390000" unicode="&#x2554;" horiz-adv-x="1451" 
 />
    <glyph glyph-name="SF220000" unicode="&#x2555;" horiz-adv-x="1451" 
 />
    <glyph glyph-name="SF210000" unicode="&#x2556;" horiz-adv-x="1451" 
 />
    <glyph glyph-name="SF250000" unicode="&#x2557;" horiz-adv-x="1451" 
 />
    <glyph glyph-name="SF500000" unicode="&#x2558;" horiz-adv-x="1451" 
 />
    <glyph glyph-name="SF490000" unicode="&#x2559;" horiz-adv-x="1451" 
 />
    <glyph glyph-name="SF380000" unicode="&#x255a;" horiz-adv-x="1451" 
 />
    <glyph glyph-name="SF280000" unicode="&#x255b;" horiz-adv-x="1451" 
 />
    <glyph glyph-name="SF270000" unicode="&#x255c;" horiz-adv-x="1451" 
 />
    <glyph glyph-name="SF260000" unicode="&#x255d;" horiz-adv-x="1451" 
 />
    <glyph glyph-name="SF360000" unicode="&#x255e;" horiz-adv-x="1451" 
 />
    <glyph glyph-name="SF370000" unicode="&#x255f;" horiz-adv-x="1451" 
 />
    <glyph glyph-name="SF420000" unicode="&#x2560;" horiz-adv-x="1451" 
 />
    <glyph glyph-name="SF190000" unicode="&#x2561;" horiz-adv-x="1451" 
 />
    <glyph glyph-name="SF200000" unicode="&#x2562;" horiz-adv-x="1451" 
 />
    <glyph glyph-name="SF230000" unicode="&#x2563;" horiz-adv-x="1451" 
 />
    <glyph glyph-name="SF470000" unicode="&#x2564;" horiz-adv-x="1451" 
 />
    <glyph glyph-name="SF480000" unicode="&#x2565;" horiz-adv-x="1451" 
 />
    <glyph glyph-name="SF410000" unicode="&#x2566;" horiz-adv-x="1451" 
 />
    <glyph glyph-name="SF450000" unicode="&#x2567;" horiz-adv-x="1451" 
 />
    <glyph glyph-name="SF460000" unicode="&#x2568;" horiz-adv-x="1451" 
 />
    <glyph glyph-name="SF400000" unicode="&#x2569;" horiz-adv-x="1451" 
 />
    <glyph glyph-name="SF540000" unicode="&#x256a;" horiz-adv-x="1451" 
 />
    <glyph glyph-name="SF530000" unicode="&#x256b;" horiz-adv-x="1451" 
 />
    <glyph glyph-name="SF440000" unicode="&#x256c;" horiz-adv-x="1451" 
 />
    <glyph glyph-name="upblock" unicode="&#x2580;" horiz-adv-x="1451" 
 />
    <glyph glyph-name="dnblock" unicode="&#x2584;" horiz-adv-x="1451" 
 />
    <glyph glyph-name="block" unicode="&#x2588;" horiz-adv-x="1451" 
 />
    <glyph glyph-name="lfblock" unicode="&#x258c;" horiz-adv-x="1451" 
 />
    <glyph glyph-name="rtblock" unicode="&#x2590;" horiz-adv-x="1451" 
 />
    <glyph glyph-name="ltshade" unicode="&#x2591;" horiz-adv-x="1451" 
 />
    <glyph glyph-name="shade" unicode="&#x2592;" horiz-adv-x="1451" 
 />
    <glyph glyph-name="dkshade" unicode="&#x2593;" horiz-adv-x="1493" 
 />
    <glyph glyph-name="filledbox" unicode="&#x25a0;" horiz-adv-x="1237" 
 />
    <glyph glyph-name="H22073" unicode="&#x25a1;" horiz-adv-x="1237" 
 />
    <glyph glyph-name="H18543" unicode="&#x25aa;" horiz-adv-x="726" 
 />
    <glyph glyph-name="H18551" unicode="&#x25ab;" horiz-adv-x="726" 
 />
    <glyph glyph-name="filledrect" unicode="&#x25ac;" horiz-adv-x="2048" 
 />
    <glyph glyph-name="triagup" unicode="&#x25b2;" horiz-adv-x="2027" 
 />
    <glyph glyph-name="triagrt" unicode="&#x25ba;" horiz-adv-x="2027" 
 />
    <glyph glyph-name="triagdn" unicode="&#x25bc;" horiz-adv-x="2027" 
 />
    <glyph glyph-name="triaglf" unicode="&#x25c4;" horiz-adv-x="2027" 
 />
    <glyph glyph-name="circle" unicode="&#x25cb;" horiz-adv-x="1237" 
 />
    <glyph glyph-name="H18533" unicode="&#x25cf;" horiz-adv-x="1237" 
 />
    <glyph glyph-name="invbullet" unicode="&#x25d8;" horiz-adv-x="1237" 
 />
    <glyph glyph-name="invcircle" unicode="&#x25d9;" horiz-adv-x="1237" 
 />
    <glyph glyph-name="openbullet" unicode="&#x25e6;" horiz-adv-x="726" 
 />
    <glyph glyph-name="smileface" unicode="&#x263a;" horiz-adv-x="2091" 
 />
    <glyph glyph-name="invsmileface" unicode="&#x263b;" horiz-adv-x="2155" 
 />
    <glyph glyph-name="sun" unicode="&#x263c;" horiz-adv-x="1877" 
 />
    <glyph glyph-name="female" unicode="&#x2640;" horiz-adv-x="1536" 
 />
    <glyph glyph-name="male" unicode="&#x2642;" horiz-adv-x="1536" 
 />
    <glyph glyph-name="spade" unicode="&#x2660;" horiz-adv-x="1088" 
 />
    <glyph glyph-name="club" unicode="&#x2663;" horiz-adv-x="1344" 
 />
    <glyph glyph-name="heart" unicode="&#x2665;" horiz-adv-x="1216" 
 />
    <glyph glyph-name="diamond" unicode="&#x2666;" horiz-adv-x="1045" 
 />
    <glyph glyph-name="musicalnote" unicode="&#x266a;" horiz-adv-x="1024" 
 />
    <glyph glyph-name="musicalnotedbl" unicode="&#x266b;" horiz-adv-x="1536" 
 />
    <glyph glyph-name="uniF004" unicode="&#xf004;" horiz-adv-x="682" 
 />
    <glyph glyph-name="uniF005" unicode="&#xf005;" horiz-adv-x="682" 
 />
  </font>
</defs>
</svg>
