<svg width="27" height="25" viewBox="0 0 27 25" fill="none" xmlns="http://www.w3.org/2000/svg">
<path d="M11.546 12.282C11.546 12.618 11.546 12.888 11.546 13.092C11.558 13.284 11.576 13.428 11.6 13.524C11.624 13.62 11.654 13.68 11.69 13.704C11.738 13.728 11.798 13.74 11.87 13.74C12.086 13.74 12.356 13.71 12.68 13.65C13.016 13.578 13.334 13.47 13.634 13.326C13.946 13.17 14.21 12.978 14.426 12.75C14.654 12.522 14.768 12.246 14.768 11.922C14.768 11.706 14.684 11.478 14.516 11.238C14.36 10.998 14.162 10.764 13.922 10.536C13.682 10.308 13.418 10.104 13.13 9.924C12.854 9.744 12.59 9.606 12.338 9.51C12.23 9.546 12.122 9.594 12.014 9.654C11.906 9.714 11.822 9.774 11.762 9.834C11.678 9.93 11.618 10.152 11.582 10.5C11.558 10.836 11.546 11.43 11.546 12.282ZM11.726 8.394C11.786 8.454 11.852 8.514 11.924 8.574C12.008 8.634 12.092 8.664 12.176 8.664C12.308 8.664 12.488 8.58 12.716 8.412C12.944 8.244 13.166 8.04 13.382 7.8C13.61 7.548 13.808 7.284 13.976 7.008C14.144 6.72 14.228 6.462 14.228 6.234C14.228 6.078 14.186 5.922 14.102 5.766C14.03 5.598 13.916 5.454 13.76 5.334C13.616 5.202 13.436 5.094 13.22 5.01C13.004 4.926 12.758 4.884 12.482 4.884C12.278 4.884 12.098 4.932 11.942 5.028C11.798 5.124 11.726 5.304 11.726 5.568V8.394ZM10.61 9.366C10.61 8.658 10.604 8.106 10.592 7.71C10.58 7.314 10.556 7.014 10.52 6.81C10.496 6.594 10.454 6.45 10.394 6.378C10.346 6.306 10.28 6.246 10.196 6.198C10.028 6.102 9.896 6.03 9.8 5.982C9.716 5.922 9.674 5.838 9.674 5.73C9.674 5.682 9.692 5.634 9.728 5.586C9.764 5.538 9.854 5.466 9.998 5.37C10.154 5.262 10.394 5.124 10.718 4.956C11.042 4.788 11.492 4.56 12.068 4.272C12.14 4.236 12.218 4.212 12.302 4.2C12.386 4.176 12.53 4.164 12.734 4.164C13.598 4.164 14.276 4.29 14.768 4.542C15.272 4.794 15.524 5.244 15.524 5.892C15.524 6.216 15.5 6.492 15.452 6.72C15.404 6.948 15.296 7.164 15.128 7.368C14.972 7.572 14.75 7.782 14.462 7.998C14.174 8.202 13.784 8.442 13.292 8.718C13.52 8.79 13.79 8.928 14.102 9.132C14.426 9.324 14.732 9.558 15.02 9.834C15.308 10.098 15.554 10.392 15.758 10.716C15.962 11.028 16.064 11.346 16.064 11.67C16.064 12.03 15.95 12.366 15.722 12.678C15.506 12.978 15.23 13.254 14.894 13.506C14.57 13.746 14.204 13.962 13.796 14.154C13.4 14.334 13.022 14.49 12.662 14.622C12.314 14.742 12.008 14.838 11.744 14.91C11.48 14.97 11.312 15 11.24 15C10.688 15 10.322 14.976 10.142 14.928C9.962 14.868 9.872 14.772 9.872 14.64C9.872 14.544 9.932 14.442 10.052 14.334C10.184 14.214 10.262 14.076 10.286 13.92C10.322 13.752 10.358 13.506 10.394 13.182C10.43 12.846 10.466 12.474 10.502 12.066C10.538 11.646 10.562 11.202 10.574 10.734C10.598 10.266 10.61 9.81 10.61 9.366Z" fill="white"/>
<g filter="url(#filter0_d_53_5)">
<rect x="0.5" y="0.5" width="26" height="19" rx="6.5" stroke="white" shape-rendering="crispEdges"/>
</g>
<defs>
<filter id="filter0_d_53_5" x="0" y="0" width="27" height="24" filterUnits="userSpaceOnUse" color-interpolation-filters="sRGB">
<feFlood flood-opacity="0" result="BackgroundImageFix"/>
<feColorMatrix in="SourceAlpha" type="matrix" values="0 0 0 0 0 0 0 0 0 0 0 0 0 0 0 0 0 0 127 0" result="hardAlpha"/>
<feOffset dy="4"/>
<feComposite in2="hardAlpha" operator="out"/>
<feColorMatrix type="matrix" values="0 0 0 0 1 0 0 0 0 1 0 0 0 0 1 0 0 0 1 0"/>
<feBlend mode="normal" in2="BackgroundImageFix" result="effect1_dropShadow_53_5"/>
<feBlend mode="normal" in="SourceGraphic" in2="effect1_dropShadow_53_5" result="shape"/>
</filter>
</defs>
</svg>
